<svg width="24" height="23" viewBox="0 0 24 23" fill="none" xmlns="http://www.w3.org/2000/svg">
<path d="M7.48474 7.18106H7.49638M0.500001 4.06323L0.5 9.04564C0.5 9.59035 0.5 9.86271 0.56433 10.119C0.621364 10.3462 0.715435 10.5635 0.84309 10.7627C0.987073 10.9875 1.18841 11.1801 1.59108 11.5652L10.5183 20.1043C11.9014 21.4272 12.5929 22.0887 13.3903 22.3365C14.0917 22.5545 14.8473 22.5545 15.5487 22.3365C16.3461 22.0887 17.0376 21.4272 18.4206 20.1043L20.9954 17.6415C22.3785 16.3186 23.07 15.6571 23.3291 14.8944C23.557 14.2235 23.557 13.5008 23.3291 12.8298C23.07 12.0671 22.3785 11.4056 20.9954 10.0827L12.0682 1.54365C11.6655 1.15848 11.4642 0.965896 11.2292 0.828173C11.0209 0.706069 10.7938 0.616087 10.5562 0.561533C10.2883 0.5 10.0035 0.5 9.43408 0.5L4.22519 0.5C2.92125 0.5 2.26928 0.5 1.77125 0.742731C1.33316 0.956242 0.976981 1.29693 0.753765 1.71597C0.500001 2.19236 0.500001 2.81598 0.500001 4.06323ZM8.0668 7.18106C8.0668 7.48854 7.80621 7.73781 7.48474 7.73781C7.16328 7.73781 6.90268 7.48854 6.90268 7.18106C6.90268 6.87357 7.16328 6.6243 7.48474 6.6243C7.80621 6.6243 8.0668 6.87357 8.0668 7.18106Z" stroke="white" stroke-linecap="round" stroke-linejoin="round"/>
</svg>
