<svg width="26" height="19" viewBox="0 0 26 19" fill="none" xmlns="http://www.w3.org/2000/svg">
<path d="M25.5 6.92857H0.5M11.75 12.0714H5.5M0.5 4.61429L0.5 14.3857C0.5 15.8258 0.5 16.5459 0.772484 17.096C1.01217 17.5798 1.39462 17.9732 1.86502 18.2197C2.3998 18.5 3.09987 18.5 4.5 18.5L21.5 18.5C22.9001 18.5 23.6002 18.5 24.135 18.2197C24.6054 17.9732 24.9878 17.5798 25.2275 17.096C25.5 16.5459 25.5 15.8258 25.5 14.3857V4.61429C25.5 3.17415 25.5 2.45408 25.2275 1.90403C24.9878 1.42018 24.6054 1.0268 24.135 0.780271C23.6002 0.500002 22.9001 0.500002 21.5 0.500002L4.5 0.5C3.09987 0.5 2.3998 0.5 1.86502 0.780269C1.39462 1.0268 1.01217 1.42018 0.772484 1.90402C0.5 2.45408 0.5 3.17415 0.5 4.61429Z" stroke="white" stroke-linecap="round" stroke-linejoin="round"/>
</svg>
