<svg width="24" height="23" viewBox="0 0 24 23" fill="none" xmlns="http://www.w3.org/2000/svg">
<path d="M0.5 6.22057C0.5 4.21818 0.5 3.21699 0.917808 2.45218C1.28532 1.77943 1.87175 1.23247 2.59304 0.889691C3.41303 0.5 4.48647 0.5 6.63333 0.5H17.3667C19.5135 0.5 20.587 0.5 21.407 0.889691C22.1283 1.23247 22.7147 1.77943 23.0822 2.45218C23.5 3.21699 23.5 4.21819 23.5 6.22057V12.6562C23.5 14.6586 23.5 15.6598 23.0822 16.4246C22.7147 17.0974 22.1283 17.6443 21.407 17.9871C20.587 18.3768 19.5135 18.3768 17.3667 18.3768H14.1515C13.3541 18.3768 12.9554 18.3768 12.574 18.4498C12.2357 18.5146 11.9083 18.6217 11.6007 18.7682C11.254 18.9334 10.9427 19.1657 10.32 19.6303L7.27191 21.9047C6.74025 22.3014 6.47441 22.4998 6.25069 22.5C6.05612 22.5002 5.87206 22.4177 5.75068 22.2759C5.61111 22.1128 5.61111 21.7953 5.61111 21.1602V18.3768C4.42281 18.3768 3.82867 18.3768 3.34119 18.255C2.01834 17.9244 0.985075 16.9606 0.630618 15.7268C0.5 15.2721 0.5 14.718 0.5 13.6096V6.22057Z" stroke="white" stroke-linecap="round" stroke-linejoin="round"/>
<path fill-rule="evenodd" clip-rule="evenodd" d="M11.9961 6.1005C10.8464 4.86241 8.92935 4.52937 7.48895 5.66309C6.04855 6.79681 5.84576 8.69233 6.97691 10.0332C7.67771 10.8639 9.43663 12.3811 10.6736 13.4153C11.128 13.7952 11.3552 13.9852 11.6278 14.0617C11.8617 14.1274 12.1304 14.1274 12.3643 14.0617C12.637 13.9852 12.8641 13.7952 13.3185 13.4153C14.5555 12.3811 16.3144 10.8639 17.0152 10.0332C18.1464 8.69233 17.9683 6.78488 16.5032 5.66309C15.038 4.5413 13.1457 4.86241 11.9961 6.1005Z" stroke="white" stroke-linecap="round" stroke-linejoin="round"/>
</svg>
