<svg width="26" height="23" viewBox="0 0 26 23" fill="none" xmlns="http://www.w3.org/2000/svg">
<path d="M23.625 6.61111V16.6333C23.625 18.6869 23.625 19.7136 23.2163 20.498C22.8567 21.1879 22.2831 21.7488 21.5775 22.1004C20.7753 22.5 19.7252 22.5 17.625 22.5H8.375C6.2748 22.5 5.2247 22.5 4.42254 22.1004C3.71693 21.7488 3.14325 21.1879 2.78373 20.498C2.375 19.7136 2.375 18.6869 2.375 16.6333V6.61111M2.5 0.5H23.5C24.2001 0.5 24.5501 0.5 24.8175 0.633214C25.0527 0.750393 25.2439 0.937369 25.3638 1.16734C25.5 1.42879 25.5 1.77105 25.5 2.45556V4.65556C25.5 5.34006 25.5 5.68232 25.3638 5.94377C25.2439 6.17374 25.0527 6.36072 24.8175 6.4779C24.5501 6.61111 24.2001 6.61111 23.5 6.61111H2.5C1.79993 6.61111 1.4499 6.61111 1.18251 6.4779C0.947309 6.36072 0.756084 6.17374 0.636242 5.94377C0.5 5.68232 0.5 5.34006 0.5 4.65556V2.45556C0.5 1.77105 0.5 1.42879 0.636242 1.16734C0.756084 0.937369 0.947309 0.750393 1.18251 0.633214C1.4499 0.5 1.79993 0.5 2.5 0.5ZM10 10.8889H16C16.7001 10.8889 17.0501 10.8889 17.3175 11.0221C17.5527 11.1393 17.7439 11.3263 17.8638 11.5562C18 11.8177 18 12.1599 18 12.8444V13.8222C18 14.5067 18 14.849 17.8638 15.1104C17.7439 15.3404 17.5527 15.5274 17.3175 15.6446C17.0501 15.7778 16.7001 15.7778 16 15.7778H10C9.29993 15.7778 8.9499 15.7778 8.68251 15.6446C8.44731 15.5274 8.25608 15.3404 8.13624 15.1104C8 14.849 8 14.5067 8 13.8222V12.8444C8 12.1599 8 11.8177 8.13624 11.5562C8.25608 11.3263 8.44731 11.1393 8.68251 11.0221C8.9499 10.8889 9.29993 10.8889 10 10.8889Z" stroke="white" stroke-linecap="round" stroke-linejoin="round"/>
</svg>
