<svg width="25" height="27" viewBox="0 0 25 27" fill="none" xmlns="http://www.w3.org/2000/svg">
<path d="M24.5 10.9H0.5M17.8333 0.5V5.7M7.16667 0.5V5.7M10.5 16.1L12.5 14.8V21.3M10.8333 21.3H14.1667M6.9 26.5H18.1C20.3402 26.5 21.4603 26.5 22.316 26.0749C23.0686 25.701 23.6805 25.1044 24.064 24.3706C24.5 23.5363 24.5 22.4442 24.5 20.26V9.34C24.5 7.1558 24.5 6.06369 24.064 5.22944C23.6805 4.4956 23.0686 3.89898 22.316 3.52507C21.4603 3.1 20.3402 3.1 18.1 3.1H6.9C4.65979 3.1 3.53969 3.1 2.68404 3.52507C1.93139 3.89898 1.31947 4.4956 0.935974 5.22944C0.5 6.06369 0.5 7.15579 0.5 9.34V20.26C0.5 22.4442 0.5 23.5363 0.935974 24.3706C1.31947 25.1044 1.93139 25.701 2.68404 26.0749C3.53969 26.5 4.65979 26.5 6.9 26.5Z" stroke="#AB6671" stroke-linecap="round" stroke-linejoin="round"/>
</svg>
