<svg width="17" height="19" viewBox="0 0 17 19" fill="none" xmlns="http://www.w3.org/2000/svg">
<path d="M11.9925 6.8V4.1C11.9925 2.11178 10.4289 0.5 8.5 0.5C6.57114 0.5 5.0075 2.11178 5.0075 4.1V6.8M1.15876 8.01677L0.634882 13.7768C0.485929 15.4145 0.411453 16.2334 0.675087 16.8658C0.906682 17.4215 1.31253 17.8809 1.82759 18.1704C2.4139 18.5 3.21179 18.5 4.80759 18.5H12.1924C13.7882 18.5 14.5861 18.5 15.1724 18.1704C15.6875 17.8809 16.0933 17.4215 16.3249 16.8658C16.5885 16.2334 16.5141 15.4145 16.3651 13.7768L15.8412 8.01677C15.7155 6.63381 15.6526 5.94233 15.3508 5.41955C15.0851 4.95913 14.6925 4.5906 14.223 4.36086C13.6899 4.1 13.0161 4.1 11.6685 4.1L5.33147 4.1C3.98392 4.1 3.31015 4.1 2.77702 4.36086C2.3075 4.5906 1.91489 4.95913 1.64916 5.41955C1.34743 5.94233 1.28454 6.63381 1.15876 8.01677Z" stroke="white" stroke-linecap="round" stroke-linejoin="round"/>
</svg>
