<svg width="22" height="26" viewBox="0 0 22 26" fill="none" xmlns="http://www.w3.org/2000/svg">
<path d="M15.4444 5.8V4.84C15.4444 3.49587 15.4444 2.82381 15.2022 2.31042C14.9892 1.85883 14.6492 1.49168 14.2311 1.26158C13.7557 1 13.1335 1 11.8889 1H10.1111C8.86655 1 8.24427 1 7.76891 1.26158C7.35077 1.49168 7.01082 1.85883 6.79776 2.31042C6.55556 2.82381 6.55556 3.49587 6.55556 4.84V5.8M8.77778 12.4V18.4M13.2222 12.4V18.4M1 5.8H21M18.7778 5.8V19.24C18.7778 21.2562 18.7778 22.2643 18.4145 23.0344C18.0949 23.7118 17.585 24.2625 16.9577 24.6076C16.2447 25 15.3113 25 13.4444 25H8.55556C6.68871 25 5.75529 25 5.04225 24.6076C4.41505 24.2625 3.90511 23.7118 3.58553 23.0344C3.22222 22.2643 3.22222 21.2562 3.22222 19.24V5.8" stroke="#AB6671" stroke-width="2" stroke-linecap="round" stroke-linejoin="round"/>
</svg>
