<svg width="15" height="14" viewBox="0 0 15 14" fill="none" xmlns="http://www.w3.org/2000/svg">
<path d="M1.76532 2.80215C1.26179 2.23092 1.01002 1.94531 1.00053 1.70257C0.992276 1.49171 1.08155 1.28903 1.24187 1.15467C1.42642 1 1.804 1 2.55916 1H12.4408C13.196 1 13.5736 1 13.7581 1.15467C13.9185 1.28903 14.0077 1.49171 13.9995 1.70257C13.99 1.94531 13.7382 2.23092 13.2347 2.80215L9.43575 7.11183C9.33537 7.2257 9.28518 7.28263 9.2494 7.34743C9.21766 7.40489 9.19437 7.46676 9.18027 7.53107C9.16438 7.60358 9.16438 7.67998 9.16438 7.83277V11.4461C9.16438 11.5782 9.16438 11.6443 9.14338 11.7014C9.12482 11.7519 9.09465 11.7972 9.05536 11.8334C9.0109 11.8744 8.95046 11.8989 8.82958 11.948L6.56603 12.8671C6.32133 12.9664 6.19899 13.0161 6.10077 12.9954C6.01489 12.9772 5.93952 12.9254 5.89105 12.8512C5.83562 12.7664 5.83562 12.6326 5.83562 12.3651V7.83277C5.83562 7.67998 5.83562 7.60358 5.81973 7.53107C5.80563 7.46676 5.78234 7.40489 5.7506 7.34743C5.71482 7.28263 5.66463 7.2257 5.56425 7.11183L1.76532 2.80215Z" stroke="black" stroke-width="2" stroke-linecap="round" stroke-linejoin="round"/>
</svg>
