<svg xmlns="http://www.w3.org/2000/svg" width="46" height="74" fill="currentColor" viewBox="0 0 46 74">
  <path d="M5.87 67.96c7.827 7.827 20.522 7.827 28.349 0l9.367-9.368a5.664 5.664 0 0 0 1.67-4.167 5.656 5.656 0 0 0-1.868-4.091 5.631 5.631 0 0 0-3.117-1.43c1.448-2.172 1.302-5.067-.49-7.028a5.663 5.663 0 0 0-3.45-1.82c1.559-2.183 1.454-5.178-.379-7.191a5.667 5.667 0 0 0-3.35-1.804l5.72-5.72c2.218-2.217 2.334-5.83.157-8.083a5.703 5.703 0 0 0-8.142-.07l-6.005 5.498a25.248 25.248 0 0 0-.432-.648c-.1-.152-.199-.298-.286-.432-1.495-2.276-4.138-4.92-7.068-5.527-1.314-.274-2.569-.17-3.63.292-1.396.607-2.05 1.552-2.353 2.235-.432.98-.484 2.177-.152 3.455.427 1.634 1.372 3.228 1.728 3.823.03.053.058.094.07.123.648 1.179 1.308 2.428 2.008 3.747.257.49.52.975.782 1.465L6.5 38.993c-8.41 7.716-8.702 20.895-.63 28.967Zm16.804-43.75-5.965 5.462c-.87-1.634-1.716-3.245-2.539-4.745-.152-.274-1.196-1.891-1.593-3.432-.193-.735-.204-1.453.035-1.996.245-.549.712-.881 1.202-1.091.683-.298 1.5-.316 2.294-.152 1.996.414 4.196 2.34 5.661 4.576.251.39.572.852.905 1.377ZM8.018 40.61l23.89-21.858a3.484 3.484 0 0 1 2.474-1.027 3.47 3.47 0 0 1 2.463 1.015c1.39 1.378 1.325 3.648-.058 5.031L21.302 39.256a1.07 1.07 0 0 0-.326.724c-.012.326.128.624.379.834.403.333 1.033.292 1.424-.1l6.414-6.42c.7-.7 1.658-1.12 2.65-1.09a3.461 3.461 0 0 1 2.487 1.143c1.26 1.383 1.179 3.537-.187 4.897l-7.238 7.25A1.042 1.042 0 0 0 27 48.045c.42.327 1.027.256 1.4-.117l4.623-4.623c.7-.7 1.658-1.12 2.65-1.091.957.03 1.839.432 2.486 1.144 1.261 1.383 1.18 3.537-.186 4.897l-5.574 5.574c-.415.414-.444 1.097-.03 1.506.45.443 1.133.32 1.775-.327l2.866-2.866c1.365-1.366 3.513-1.442 4.896-.187a3.49 3.49 0 0 1 1.15 2.492c.03.992-.39 1.944-1.091 2.644l-9.286 9.286c-6.969 6.97-18.263 6.97-25.232 0C.256 59.2.518 47.468 8.018 40.61Z"/>
  <path d="M24.221 15.483c-1.295-1.249-1.96-1.885-2.784-2.679l-1.92-1.844c-1.167-1.12-3.595-3.455-3.595-5.977 0-1.383.549-2.708 1.511-3.63.97-.928 2.294-1.407 3.736-1.348 1.57.064 2.912 1.12 3.706 1.92.782-.788 2.09-1.827 3.642-1.914 1.477-.082 2.837.39 3.823 1.325.963.91 1.494 2.165 1.494 3.536 0 2.3-1.88 4.419-3.513 6.006a607.197 607.197 0 0 1-3.83 3.689l-1.61 1.547-.66-.63ZM28.628 1.92c-1.302.07-2.585 1.477-2.97 2.014L24.892 5l-.782-1.062c-.403-.543-1.722-1.973-3.018-2.026-.928-.035-1.74.245-2.34.823-.596.572-.923 1.372-.923 2.253 0 1.704 2.032 3.66 3.012 4.6l1.915 1.844c.67.648 1.237 1.19 2.124 2.043l.292-.28c1.045-1.005 2.037-1.95 3.817-3.683.805-.783 2.936-2.849 2.936-4.64 0-.841-.321-1.606-.9-2.148-.565-.532-1.312-.812-2.176-.812-.07 0-.146.006-.222.006Z"/>
</svg>
