<svg xmlns="http://www.w3.org/2000/svg" width="35" height="29" fill="currentColor" viewBox="0 0 35 29">
  <path d="M34.804 9.715c-.236-3.312-1.865-6.34-4.153-7.72C29.563 1.344 28.246.99 26.742.95c-2.913-.078-5.832.973-8.257 2.982C15.908 2.29 13.008.512 9.805.12 6.662-.264 2.706 1.035.939 4.802c-1.97 4.191-.286 9.165.534 11.108 1.408 3.352 3.487 6.294 6.022 8.506 1.898 1.652 3.888 2.769 5.927 3.317a12.04 12.04 0 0 0 3.144.4c3.27-.006 6.8-1.254 10.21-3.648 2.535-1.78 4.442-3.738 5.805-5.991 1.641-2.73 2.433-5.84 2.223-8.779Zm-3.21 8.186c-1.287 2.118-3.075 3.965-5.483 5.651-4.257 2.982-8.663 4.079-12.402 3.076-1.87-.506-3.707-1.538-5.468-3.072-2.408-2.092-4.384-4.89-5.725-8.09-.76-1.799-2.323-6.399-.548-10.182C3.321 2.41 6.181 1.198 8.712 1.193c.322-.001.645.015.95.057 2.847.35 5.534 1.95 7.95 3.474-.365.349-.712.723-1.051 1.123a.57.57 0 0 0 .443.933.585.585 0 0 0 .442-.204c.398-.477.821-.91 1.254-1.31a.568.568 0 0 0 .416-.248.412.412 0 0 0 .067-.179c2.213-1.856 4.87-2.838 7.52-2.759 1.324.04 2.429.326 3.356.885 1.973 1.185 3.388 3.865 3.599 6.82.2 2.718-.532 5.59-2.064 8.116Z"/>
  <path d="M6.312 11.195a.572.572 0 0 0-.638-.492.57.57 0 0 0-.492.639c.363 2.674 1.617 5.152 3.523 6.982.11.11.255.16.4.16.152 0 .297-.06.407-.179a.567.567 0 0 0-.019-.806c-1.72-1.644-2.853-3.893-3.181-6.304Z"/>
</svg>
