<svg width="46" height="44" viewBox="0 0 46 44" fill="none" xmlns="http://www.w3.org/2000/svg">
<path d="M45.6965 17.2724C45.6965 16.5572 45.5632 15.927 45.2844 15.3573C43.8905 12.4119 35.5997 12.3513 32.0725 12.6907C28.4847 3.80599 25.6363 0 22.606 0C19.5758 0 16.8365 3.64841 13.5032 12.1816C11.2972 12.2664 8.29117 12.4725 5.79425 13.127C2.72765 13.9391 0.909497 15.2482 0.230723 17.1391C-1.19955 21.0784 4.35185 25.9146 7.74572 27.9994C6.9821 30.557 6.00032 34.969 6.00032 38.3144C6.00032 40.5325 6.43667 41.9264 7.34574 42.5567C8.00027 43.0173 8.77601 43.2113 9.61236 43.2113C13.9517 43.2113 20.194 37.9871 22.2788 36.1326C25.8423 39.8416 32.618 44.0476 35.8543 42.5688C39.1754 41.0416 38.4845 32.06 37.8542 28.0843C41.1875 25.8177 45.6965 21.0905 45.6965 17.2724ZM36.533 26.9934C36.2542 27.1752 36.1088 27.5025 36.1694 27.8297C37.1633 33.4054 36.9573 40.2537 35.1876 41.078C33.0543 42.0598 26.5332 38.5204 22.9454 34.4357C22.8 34.266 22.5939 34.169 22.3757 34.1569C22.1697 34.1448 21.9394 34.2296 21.7818 34.3751C17.9395 37.975 10.8608 43.0052 8.27905 41.2113C8.12148 41.1022 7.62452 40.581 7.62452 38.3023C7.62452 35.2478 8.58208 30.6418 9.47903 27.8661C9.60024 27.5025 9.44267 27.0904 9.10328 26.9086C5.46699 24.8601 0.764046 20.3996 1.74584 17.6845C2.21856 16.3512 3.72157 15.3451 6.19425 14.6906C8.75177 14.024 11.9275 13.8543 14.085 13.7815C14.4123 13.7694 14.7032 13.5634 14.8244 13.2603C17.8425 5.43019 20.3879 1.62421 22.5939 1.62421C24.8242 1.62421 27.5029 5.62413 30.7756 13.8664C30.9089 14.2179 31.2725 14.424 31.6362 14.3755C36.2179 13.7694 43.0662 14.4967 43.8056 16.0603C43.9753 16.4118 44.0602 16.8118 44.0602 17.2724C44.0723 20.4723 39.6118 25.054 36.533 26.9934Z" fill="#87555F"/>
<path d="M21.3572 8.41172C20.9815 8.1693 20.4724 8.29051 20.23 8.66626C19.0057 10.6299 18.1694 12.7874 17.7452 15.0904C17.6603 15.5267 17.9512 15.9631 18.3997 16.0358C18.4482 16.0479 18.4967 16.0479 18.5452 16.0479C18.933 16.0479 19.2724 15.7691 19.3451 15.3813C19.733 13.2843 20.4966 11.3208 21.6118 9.53897C21.8542 9.1511 21.733 8.65414 21.3572 8.41172Z" fill="#87555F"/>
</svg>
