<svg width="63" height="33" viewBox="0 0 63 33" fill="none" xmlns="http://www.w3.org/2000/svg">
<path d="M22.4137 16.6467C22.3046 16.2346 21.8803 14.8649 21.2379 14.1619C20.2198 13.0589 18.741 12.671 17.2986 12.4044C17.2623 12.3922 17.2259 12.3922 17.1774 12.3922C14.2563 12.2953 11.1169 13.471 10.5472 16.3679C10.1957 18.2467 11.3472 20.283 13.2745 21.2042C14.0381 21.5799 15.0926 21.786 16.2199 21.786C17.8441 21.786 19.6258 21.3617 20.8985 20.4042C22.1349 19.483 22.6682 18.1739 22.4258 16.7315C22.4258 16.6952 22.4258 16.6709 22.4137 16.6467ZM19.9289 19.1073C18.3531 20.2951 15.3956 20.4284 13.9896 19.7375C12.9229 19.2285 11.9169 17.98 12.1593 16.6831C12.5714 14.574 15.3108 14.0286 16.8986 14.0286C16.9592 14.0286 17.0198 14.0286 17.0683 14.0286C18.2077 14.2346 19.3592 14.5377 20.0501 15.277C20.2925 15.5316 20.6198 16.271 20.8379 17.0346C20.9591 17.8709 20.6682 18.5497 19.9289 19.1073Z" fill="#87555F"/>
<path d="M51.8578 16.7807C54.9123 14.102 63.5909 5.78697 62.4758 2.04159C62.2576 1.32645 61.6273 0.441629 59.797 0.308299L59.0576 0.247694C56.791 0.0658793 53.3729 -0.200782 51.4457 0.550718C51.3851 0.57496 51.3245 0.611314 51.276 0.647677C49.0821 2.19916 47.7003 4.19913 46.2458 6.30818C45.8337 6.91423 45.4094 7.53239 44.9488 8.15056C44.6822 5.66576 44.4398 3.52035 43.9428 1.66584C43.3246 -0.60078 40.5611 -0.0310914 38.549 0.381022C38.0763 0.477989 37.6278 0.574954 37.1672 0.635559C36.646 0.756769 36.1005 0.817371 35.5308 0.890096C34.549 1.01131 33.543 1.14465 32.5733 1.5204C32.5127 1.54464 32.4521 1.56887 32.4036 1.61735C31.434 2.29613 31.4703 3.6052 31.4824 4.15064C31.4946 5.01123 31.5188 5.87182 31.543 6.73241C30.7309 5.71425 29.6885 4.76881 28.0522 3.71429C24.925 1.70221 21.6523 0.865854 16.7433 0.829491C16.7191 0.829491 16.707 0.829491 16.6827 0.829491C8.00412 0.829491 1.54364 5.66577 0.222452 13.1444C-0.92904 19.6776 2.29514 28.3077 12.1131 31.8471C14.0282 32.4895 16.0282 32.8046 18.0282 32.8046C22.7675 32.8046 27.5552 31.0592 31.3491 27.7986C31.4461 28.6229 31.6521 29.4835 32.0521 30.138C32.137 30.2835 32.2703 30.3925 32.4279 30.4653C33.6279 30.9622 34.8278 31.0956 36.0278 31.0956C36.6339 31.0956 37.2399 31.0592 37.8459 31.035L38.1974 31.0107C42.5974 30.8531 42.8277 27.3502 42.9974 24.526C42.9974 24.4654 43.0095 24.3927 43.0095 24.3321C43.2155 24.6108 43.4216 24.8775 43.6155 25.1442C45.1428 27.1926 46.464 28.9623 48.6457 29.5683C50.8033 30.1744 56.5971 29.9925 58.5001 28.3441C58.9485 27.9562 59.4455 27.2168 59.2152 25.9563C58.694 22.9866 54.3184 18.514 51.8578 16.7807ZM12.6586 30.3077C3.74965 27.0956 0.792144 19.3019 1.83455 13.4232C2.76786 8.1142 7.15565 2.4537 16.6827 2.4537C16.707 2.4537 16.7191 2.4537 16.7433 2.4537C21.3614 2.47795 24.2826 3.21732 27.1674 5.07183C29.6643 6.68392 30.6097 7.93238 31.5552 9.79901C31.8461 10.3566 32.1249 10.9505 32.44 11.6293C34.1248 15.2413 33.6036 22.4533 31.434 25.4351C31.3249 25.5926 31.1794 25.7623 31.0461 25.8957C26.0401 30.6713 18.8281 32.4046 12.6586 30.3077ZM57.4577 27.1199C56.2456 28.1744 51.1669 28.5865 49.1185 28.0047C47.47 27.5441 46.4155 26.126 44.9488 24.1745C44.3913 23.4351 43.761 22.5866 43.0458 21.7382C42.8398 21.4957 42.5125 21.3988 42.2095 21.4715C41.9065 21.5564 41.6762 21.8109 41.6156 22.126C41.4944 22.8775 41.4338 23.6654 41.3853 24.429C41.1913 27.532 40.9489 29.2895 38.1368 29.3865L37.7732 29.4107C36.2096 29.4956 34.7309 29.5804 33.337 29.0714C32.9733 28.2714 32.8521 26.9502 32.9612 26.0654C35.3005 22.4654 35.7975 15.011 33.9066 10.9505C33.6521 10.4172 33.4218 9.93235 33.1915 9.47175C33.1915 9.43539 33.2157 9.39902 33.2157 9.36266C33.1794 7.61724 33.1309 5.87182 33.1067 4.1264C33.1067 3.89611 33.0824 3.24157 33.2885 2.99915C34.0278 2.73249 34.8521 2.6234 35.7248 2.51431C36.3066 2.44158 36.9126 2.36886 37.4338 2.24765C37.8702 2.18705 38.355 2.09008 38.8641 1.99312C40.5974 1.64161 42.161 1.37494 42.3549 2.10219C42.8398 3.87186 43.0701 6.01727 43.3368 8.50207C43.3974 9.096 43.4701 9.71417 43.5428 10.3566C43.5792 10.6839 43.8095 10.9505 44.1246 11.0475C44.4398 11.1444 44.7791 11.0354 44.9852 10.7808C45.9912 9.5566 46.8033 8.38086 47.5912 7.24149C48.9972 5.19304 50.2214 3.41126 52.1366 2.04159C53.7486 1.4719 56.985 1.72645 58.9364 1.88402L59.6879 1.94463C60.4031 1.99311 60.8273 2.18704 60.9243 2.52643C61.6879 5.08395 52.9366 14.005 49.9669 16.2716C49.7366 16.4534 49.6154 16.7443 49.6518 17.0352C49.7002 17.3261 49.8942 17.5807 50.173 17.6776C51.6396 18.2231 57.1304 23.4957 57.6274 26.2714C57.7486 26.8775 57.5425 27.0593 57.4577 27.1199Z" fill="#87555F"/>
</svg>
