<svg width="22" height="20" viewBox="0 0 22 20" fill="none" xmlns="http://www.w3.org/2000/svg">
<path d="M1.34915 7H20.3491M8.84915 1L6.84915 7L10.8491 18.5L14.8491 7L12.8491 1M11.4637 18.2625L20.4224 7.51215C20.5742 7.32995 20.6501 7.23885 20.6791 7.13717C20.7047 7.04751 20.7047 6.95249 20.6791 6.86283C20.6501 6.76114 20.5742 6.67005 20.4224 6.48785L16.089 1.28785C16.0008 1.18204 15.9568 1.12914 15.9027 1.09111C15.8548 1.05741 15.8014 1.03238 15.7449 1.01717C15.681 1 15.6122 1 15.4744 1H6.22385C6.08611 1 6.01725 1 5.95343 1.01717C5.89689 1.03238 5.84346 1.05741 5.79557 1.09111C5.74153 1.12914 5.69744 1.18204 5.60927 1.28785L1.27594 6.48785C1.12411 6.67004 1.04819 6.76114 1.01918 6.86283C0.993606 6.95249 0.993606 7.04751 1.01918 7.13716C1.04819 7.23885 1.12411 7.32995 1.27594 7.51215L10.2346 18.2625C10.4456 18.5158 10.5512 18.6424 10.6775 18.6886C10.7883 18.7291 10.9099 18.7291 11.0208 18.6886C11.1471 18.6424 11.2527 18.5158 11.4637 18.2625Z" stroke="black" stroke-width="2" stroke-linecap="round" stroke-linejoin="round"/>
</svg>
