<svg width="59" height="52" viewBox="0 0 59 52" fill="none" xmlns="http://www.w3.org/2000/svg">
<path d="M54.0279 23.6553C54.04 23.6068 54.0401 23.5584 54.0401 23.4978C54.0401 23.4493 54.04 23.4008 54.0279 23.3402C54.0158 23.2918 53.9916 23.2432 53.9794 23.1948C53.9552 23.1463 53.9431 23.0978 53.9067 23.0493C53.8946 23.0372 53.8946 23.0129 53.8825 23.0008C53.7855 22.8675 53.6764 22.7341 53.5673 22.5644C51.1795 19.3039 47.1675 13.8495 44.1615 10.589C44.0039 10.4193 43.7857 10.3223 43.5675 10.3223L43.2282 10.3344C41.3858 10.3829 39.7615 10.4072 38.1616 10.4314C35.6283 10.4678 33.2283 10.5041 30.0284 10.6374L28.8284 10.698C28.1618 10.7344 27.0103 10.7708 25.677 10.8192C22.574 10.9283 18.7195 11.0617 17.3014 11.2193C17.2044 11.2193 17.1196 11.2314 17.0469 11.2435C16.8408 11.2677 16.6711 11.3768 16.5378 11.5344C14.1378 14.504 12.6469 16.6858 11.2045 18.7827C10.1136 20.3827 8.97427 22.0433 7.44703 24.0311C7.4349 24.0553 7.42281 24.0796 7.41069 24.1038C7.38644 24.1402 7.3622 24.1765 7.35008 24.2129C7.33796 24.2372 7.32582 24.2614 7.32582 24.2856C7.31369 24.322 7.3137 24.3584 7.30158 24.3947C7.28946 24.4432 7.28948 24.4796 7.28948 24.5159C7.28948 24.5281 7.27734 24.5523 7.27734 24.5644C7.27734 24.5765 7.28948 24.5766 7.28948 24.5887C7.28948 24.625 7.30159 24.6614 7.31371 24.6856C7.32583 24.722 7.33796 24.7705 7.35008 24.8068C7.3622 24.8311 7.36218 24.8553 7.38642 24.8796C7.39854 24.9159 7.42278 24.9402 7.44703 24.9644C7.45915 24.9887 7.47127 25.0129 7.48339 25.0372C12.55 30.8916 16.6226 35.7036 21.3255 41.2913C23.7619 44.1761 26.3315 47.2185 29.2405 50.6488C29.289 50.9154 29.4587 51.1579 29.7254 51.2669C29.7375 51.2791 29.7618 51.267 29.7739 51.2791C29.8587 51.376 29.9436 51.473 30.0163 51.57L30.0284 51.5821C30.186 51.7882 30.4284 51.9093 30.6829 51.9093C30.8042 51.9093 30.9254 51.8851 31.0466 51.8245C31.2163 51.7397 31.3254 51.5942 31.4102 51.4366C38.9737 43.0247 46.9614 33.2794 53.9188 23.9826C53.931 23.9705 53.931 23.9463 53.9431 23.9342C53.9794 23.8857 53.9916 23.8371 54.0158 23.7765C53.9916 23.7523 54.0158 23.7038 54.0279 23.6553ZM30.0163 13.1586C30.8526 14.0919 31.7132 15.0374 32.5859 15.9949C34.5859 18.1888 36.6343 20.4676 38.5979 22.7827C35.1313 22.9402 31.6284 23.1463 27.5436 23.3887C27.2406 23.4008 24.9497 23.4251 22.3073 23.4493H22.1619C23.3255 21.8978 24.6225 20.213 25.98 18.4433C27.3497 16.6615 28.7436 14.8556 30.0163 13.1586ZM22.3195 25.0856C25.1921 25.0614 27.2769 25.0372 27.6163 25.025C31.7981 24.7705 35.3495 24.5644 38.8646 24.4069C35.9434 33.5946 33.1435 41.3035 30.5375 47.3398C29.6769 45.0731 28.6466 42.2005 27.5678 39.2066C25.6164 33.7521 23.6043 28.1523 22.2225 25.0856H22.3195ZM40.5615 24.4311C40.5737 24.3948 40.5615 24.3705 40.5736 24.3341C43.8463 24.2129 47.1796 24.1402 51.7613 24.0796C45.6039 32.237 38.4888 40.952 31.7981 48.5033C34.5495 42.2247 37.4949 34.14 40.5615 24.4311ZM51.4461 22.4554C47.2523 22.5039 44.0887 22.5766 41.0221 22.6857C41.4463 20.9402 42.0888 18.7827 42.6584 16.8434C43.1433 15.1949 43.5797 13.7161 43.8342 12.6859C46.3311 15.5706 49.3129 19.5585 51.4461 22.4554ZM38.1737 12.0677C39.5191 12.0435 40.8767 12.0314 42.3433 11.995C42.1251 12.9647 41.6282 14.6373 41.107 16.3949C40.61 18.0676 40.0646 19.8979 39.6525 21.51C37.7374 19.2433 35.7374 17.0373 33.798 14.904C32.9738 14.0071 32.1738 13.1101 31.3859 12.2374C33.9313 12.1404 35.9919 12.1041 38.1737 12.0677ZM25.7134 12.4556C26.8891 12.4192 27.8951 12.3829 28.586 12.3465C27.3497 13.9949 26.0043 15.7283 24.6831 17.4616C23.4467 19.0737 22.2589 20.613 21.168 22.0554C20.3195 18.9282 19.2408 15.5949 18.3196 12.7707C20.0892 12.6495 23.277 12.5404 25.7134 12.4556ZM12.5257 19.716C13.7621 17.91 15.0469 16.0434 16.9014 13.6677C17.8953 16.6979 19.0347 20.2615 19.8589 23.4857C15.2651 23.5341 11.8712 23.5826 9.75001 23.6553C10.8045 22.2129 11.6773 20.9402 12.5257 19.716ZM9.78638 25.2675C11.9682 25.1947 15.5438 25.1463 20.4286 25.0978C21.7619 27.8492 23.9316 33.8976 26.0285 39.752C27.1072 42.758 28.1375 45.6307 28.9981 47.9094C26.6709 45.1701 24.5497 42.6489 22.5255 40.2611C18.1741 35.0854 14.356 30.5643 9.78638 25.2675Z" fill="#87555F"/>
<path d="M7.64097 17.0609C7.8349 16.6609 7.6652 16.1639 7.26521 15.97C5.241 14.9882 3.20468 13.9336 1.20472 12.8185C0.81685 12.6003 0.319907 12.7458 0.10173 13.1337C-0.116447 13.5215 0.0289864 14.0185 0.416858 14.2367C2.44106 15.3639 4.50165 16.4306 6.56221 17.4245C6.6713 17.4851 6.7925 17.5094 6.91371 17.5094C7.20461 17.5215 7.49552 17.3518 7.64097 17.0609Z" fill="#87555F"/>
<path d="M7.98191 11.8734C8.12736 11.9825 8.29705 12.0431 8.46674 12.0431C8.70916 12.0431 8.96369 11.934 9.12126 11.7158C9.38793 11.3522 9.31519 10.8431 8.96369 10.5764C7.59402 9.54614 6.24859 8.4068 4.96377 7.20682C4.6365 6.9038 4.1153 6.91589 3.81227 7.24316C3.50925 7.57042 3.52138 8.09163 3.84864 8.39465C5.16983 9.63099 6.56375 10.8067 7.98191 11.8734Z" fill="#87555F"/>
<path d="M50.6468 12.4675C50.8165 12.4675 50.9862 12.419 51.1316 12.31C52.574 11.2433 53.9437 10.1403 55.2164 9.0009C55.5558 8.69787 55.58 8.18879 55.277 7.84941C54.974 7.51002 54.4649 7.48578 54.1255 7.7888C52.8892 8.89181 51.5559 9.97058 50.1619 11.0009C49.7983 11.2675 49.7256 11.7766 49.9922 12.1402C50.1498 12.3463 50.4044 12.4675 50.6468 12.4675Z" fill="#87555F"/>
<path d="M58.0783 12.8912C57.945 12.467 57.4844 12.2246 57.0601 12.3579C55.4965 12.8549 53.9451 13.4973 52.4421 14.2609C52.0421 14.467 51.8845 14.9518 52.0905 15.3518C52.236 15.6306 52.5148 15.7881 52.8178 15.7881C52.939 15.7881 53.0724 15.7639 53.1936 15.7033C54.6117 14.9761 56.0905 14.37 57.5571 13.8973C57.9692 13.7882 58.2117 13.3276 58.0783 12.8912Z" fill="#87555F"/>
<path d="M27.4251 5.99494C27.5463 6.32221 27.8615 6.52825 28.1887 6.52825C28.2857 6.52825 28.3705 6.51614 28.4675 6.47978C28.8917 6.32221 29.1099 5.8616 28.9523 5.43736C28.4311 4.00709 27.9827 2.52834 27.6311 1.02534C27.5221 0.588987 27.0857 0.322326 26.6494 0.419294C26.213 0.528382 25.9463 0.964749 26.0433 1.4011C26.4191 2.96471 26.8797 4.51618 27.4251 5.99494Z" fill="#87555F"/>
<path d="M31.9339 6.03125C31.9581 6.03125 31.9702 6.03125 31.9945 6.03125C32.4187 6.03125 32.7823 5.70401 32.8066 5.26765C32.9036 3.86162 33.0975 2.41919 33.4126 0.988912C33.5096 0.552558 33.2308 0.116203 32.7823 0.0192348C32.346 -0.077733 31.9096 0.201073 31.8126 0.649549C31.4854 2.16467 31.2793 3.67982 31.1824 5.15857C31.146 5.60705 31.4854 5.99488 31.9339 6.03125Z" fill="#87555F"/>
</svg>
