<svg width="16" height="246" viewBox="0 0 16 246" fill="none" xmlns="http://www.w3.org/2000/svg">
<path d="M15.2448 0H9.42805C8.36074 3.19588 7.29342 6.39176 6.2261 9.58764V0H0.726439V23.4818H6.22792V14.0046L9.21966 23.4836H15.147L11.1912 11.7545C12.543 7.83752 13.893 3.92057 15.2448 0.00362349V0Z" fill="black"/>
<path d="M7.48912 50.8191C5.81839 50.8191 4.48832 50.5056 3.49711 49.8806C2.5059 49.2537 1.79557 48.3515 1.36792 47.1721C0.940265 45.9926 0.726439 44.5741 0.726439 42.9145V33.4736C0.726439 31.2923 1.35342 29.64 2.60557 28.5186C3.85771 27.3971 5.581 26.8355 7.77362 26.8355C12.2839 26.8355 14.5381 29.0476 14.5381 33.4736V35.1803C14.5381 37.2475 14.5164 38.6352 14.4747 39.3454H6.33302V43.8856C6.33302 44.3023 6.35838 44.7136 6.41093 45.114C6.46348 45.5162 6.58127 45.8477 6.76248 46.1086C6.9455 46.3695 7.24087 46.4999 7.64677 46.4999C8.23208 46.4999 8.59631 46.2463 8.74308 45.7408C8.88986 45.2353 8.96235 44.5741 8.96235 43.7606V41.5068H14.5363V42.8366C14.5363 44.5904 14.3189 46.0597 13.8858 47.2427C13.4527 48.4276 12.7224 49.319 11.6932 49.9205C10.6657 50.5201 9.26315 50.8209 7.48912 50.8209V50.8191ZM6.29859 36.5572H8.96053V33.3957C8.96053 32.5497 8.85543 31.9427 8.64704 31.5713C8.43865 31.1999 8.12516 31.0151 7.70839 31.0151C7.25899 31.0151 6.91288 31.1927 6.66644 31.5478C6.42181 31.9029 6.29859 32.5189 6.29859 33.3957V36.5572Z" fill="black"/>
<path d="M4.04255 92.4492V88.8167H12.1226V92.4492H4.04255Z" fill="black"/>
<path d="M5.48496 122.823C4.18026 122.823 3.18543 122.52 2.50228 121.915C1.81912 121.31 1.3516 120.48 1.10153 119.426C0.851468 118.371 0.726439 117.177 0.726439 115.84C0.726439 114.411 0.867778 113.239 1.14865 112.326C1.43133 111.412 1.91335 110.664 2.5965 110.079C3.27965 109.494 4.22194 108.999 5.42335 108.592L8.89892 107.401V104.99C8.89892 103.727 8.48577 103.095 7.66127 103.095C6.90926 103.095 6.53415 103.606 6.53415 104.629V106.039H1.08523C1.07435 105.956 1.06892 105.849 1.06892 105.718V105.273C1.06892 102.935 1.61979 101.278 2.72153 100.301C3.82328 99.3246 5.56832 98.8373 7.95845 98.8373C9.2106 98.8373 10.3323 99.0583 11.3253 99.5022C12.3165 99.9461 13.1029 100.6 13.681 101.466C14.2609 102.332 14.5508 103.403 14.5508 104.675V122.569H8.97684V119.783C8.70503 120.765 8.25744 121.515 7.63046 122.036C7.00348 122.558 6.28952 122.819 5.48496 122.819V122.823ZM7.69208 118.469C8.15053 118.469 8.46402 118.275 8.63073 117.889C8.79744 117.503 8.8808 117.085 8.8808 116.637V110.094C8.10885 110.407 7.50724 110.8 7.07959 111.275C6.65194 111.749 6.43811 112.447 6.43811 113.366V116.387C6.43811 117.775 6.85489 118.469 7.69026 118.469H7.69208Z" fill="black"/>
<path d="M8.77568 217.933C4.0987 217.933 1.76113 215.507 1.76113 210.653V201.229C1.76113 199.017 2.38266 197.25 3.62394 195.929C4.86702 194.609 6.58307 193.949 8.77568 193.949C10.9683 193.949 12.7007 194.609 13.9437 195.929C15.1868 197.25 15.8066 199.017 15.8066 201.229V210.653C15.8066 215.507 13.4635 217.933 8.77568 217.933ZM8.77568 213.612C9.24501 213.612 9.58207 213.442 9.78502 213.103C9.98798 212.764 10.0913 212.333 10.0913 211.811V200.336C10.0913 198.968 9.65273 198.285 8.77568 198.285C7.89864 198.285 7.46013 198.968 7.46013 200.336V211.811C7.46013 212.333 7.5616 212.764 7.76636 213.103C7.96931 213.442 8.30636 213.612 8.77568 213.612Z" fill="black"/>
<path d="M15.7397 221.717V245.197H10.0389V242.695C10.0353 237.748 10.0299 232.802 10.0262 227.854C10.0262 226.486 9.58951 225.801 8.71246 225.801C7.83542 225.801 7.39328 226.486 7.39328 227.854V242.02C7.33529 243.101 7.05986 243.926 6.57422 244.487C6.30241 244.804 5.90557 245.04 5.38006 245.199C5.31845 245.217 5.2514 245.235 5.18436 245.254C4.67697 245.382 4.06629 245.449 3.34871 245.449C2.63112 245.449 1.92804 245.391 1.23764 245.272C0.543613 245.152 0.132282 245.071 0 245.031V241.21C0.210201 241.25 0.445759 241.271 0.70851 241.271C1.0818 241.271 1.33731 241.192 1.46959 241.036C1.59825 240.88 1.6653 240.608 1.6653 240.221C1.67617 236.396 1.68523 232.57 1.69611 228.745C1.68342 228.042 1.65804 224.953 2.73442 223.143C3.06965 222.578 3.42481 222.288 3.50455 222.223C4.1279 221.719 4.95422 221.469 5.98529 221.469C6.43469 221.469 6.84422 221.505 7.21027 221.585C7.77201 221.696 8.23408 221.902 8.60374 222.196C9.21441 222.681 9.69462 223.357 10.0371 224.227V221.719H15.7379L15.7397 221.717Z" fill="black"/>
<path d="M5.31463 82.3227C4.06248 82.3227 3.10389 82.0618 2.44067 81.54C1.77745 81.0183 1.32624 80.2899 1.08705 79.3569C0.846039 78.4239 0.726439 77.3296 0.726439 76.0777V58.5891H6.36382V75.4182C6.36382 76.3567 6.4363 77.0125 6.58308 77.3821C6.72986 77.7535 7.07416 77.9383 7.61597 77.9383C8.20127 77.9383 8.56912 77.6774 8.71953 77.1557C8.86993 76.6339 8.94604 75.9599 8.94604 75.1356V58.5891H14.5363V82.0727H8.93154V79.5671C8.57638 80.4657 8.15053 81.1487 7.65584 81.6179C7.15933 82.0872 6.38013 82.3227 5.31463 82.3227Z" fill="black"/>
<path d="M7.63228 56.9568C6.58489 56.9568 5.69698 56.7375 4.97034 56.2991C4.24369 55.8607 3.63483 55.2791 3.14194 54.5526L4.74563 52.9492C5.06637 53.2699 5.46684 53.5634 5.94885 53.8315C6.42906 54.0997 6.9908 54.2319 7.63228 54.2319C8.27375 54.2319 8.8355 54.0997 9.3157 53.8315C9.7959 53.5652 10.1982 53.2699 10.5189 52.9492L12.1226 54.5526C11.6515 55.2791 11.048 55.8625 10.3105 56.2991C9.57302 56.7375 8.67966 56.9568 7.63228 56.9568Z" fill="black"/>
<path d="M5.9561 155.059C4.70396 155.059 3.74536 154.798 3.08214 154.277C2.41892 153.755 1.96771 153.026 1.72851 152.093C1.48751 151.16 1.36792 150.066 1.36792 148.814V131.326H7.00529V148.155C7.00529 149.093 7.07778 149.749 7.22456 150.119C7.37134 150.49 7.71563 150.675 8.25745 150.675C8.84275 150.675 9.2106 150.414 9.361 149.892C9.5114 149.37 9.58751 148.696 9.58751 147.872V131.326H15.1778V154.809H9.57302V152.304C9.21785 153.202 8.79201 153.885 8.29731 154.354C7.8008 154.824 7.02161 155.059 5.9561 155.059Z" fill="black"/>
<path d="M8.27375 129.693C7.22637 129.693 6.33845 129.474 5.6118 129.036C4.88516 128.597 4.2763 128.016 3.78341 127.289L5.3871 125.686C5.70784 126.006 6.10831 126.3 6.59033 126.568C7.07053 126.836 7.63227 126.968 8.27375 126.968C8.91523 126.968 9.47697 126.836 9.95718 126.568C10.4374 126.302 10.8397 126.006 11.1604 125.686L12.7641 127.289C12.293 128.016 11.6895 128.599 10.952 129.036C10.2145 129.474 9.32113 129.693 8.27375 129.693Z" fill="black"/>
<path d="M10.0278 159.705V162.352C9.83214 161.464 9.44254 160.759 8.86267 160.237C8.48395 159.897 8.00919 159.667 7.42933 159.552C7.12671 159.487 6.79691 159.456 6.44174 159.456C5.2204 159.456 4.26905 159.728 3.59134 160.268C2.91362 160.812 2.43885 161.567 2.16704 162.531C1.89885 163.497 1.76113 164.611 1.76113 165.875V177.378C1.76113 178.492 1.91878 179.507 2.23227 180.414C2.54576 181.322 3.04408 182.041 3.73449 182.574C4.42489 183.107 5.32731 183.371 6.44355 183.371C6.80053 183.371 7.12852 183.344 7.43114 183.292C8.79564 183.051 9.65999 182.277 10.0278 180.963V183.266C10.0278 184.181 9.80858 184.929 9.37187 185.504C8.9424 186.063 8.2955 186.35 7.42933 186.362C7.40577 186.366 7.38764 186.366 7.36408 186.366C5.99596 186.366 4.62966 185.96 3.26516 185.145L1.75932 187.719L1.36792 188.386C1.49839 188.493 1.62885 188.596 1.75932 188.696C2.24496 189.06 2.72878 189.355 3.21442 189.576C3.83053 189.855 4.52818 190.051 5.30556 190.162C5.91804 190.25 6.62295 190.299 7.42751 190.319C7.64677 190.323 7.86784 190.326 8.1016 190.326C8.792 190.326 9.43168 190.288 10.0242 190.207C11.7022 189.988 12.9978 189.457 13.9003 188.609C15.127 187.468 15.7395 185.563 15.7395 182.902V159.705H10.0242H10.0278ZM10.0278 176.764C10.0278 178.349 9.59113 179.146 8.71408 179.146C8.13966 179.146 7.78268 178.889 7.64134 178.376C7.5 177.867 7.43114 177.327 7.43114 176.764V165.718C7.43114 165.192 7.49637 164.734 7.63409 164.332C7.76818 163.93 8.10885 163.73 8.65248 163.73C9.07832 163.73 9.41536 163.953 9.65999 164.401C9.90462 164.852 10.0278 165.288 10.0278 165.718V176.764Z" fill="black"/>
</svg>
