<svg width="320" height="174" viewBox="0 0 320 174" fill="none" xmlns="http://www.w3.org/2000/svg">
<path d="M0 135.059H158.776V155.574H0V135.059ZM66.6934 96.1179H91.8929V140.758H66.6934V96.1179ZM65.9356 22.9847H87.1562V29.2533C87.1562 66.2948 60.6304 95.738 15.9155 103.906L6.06304 83.9607C45.0939 77.8821 65.9356 53.5677 65.9356 29.2533V22.9847ZM71.0512 22.9847H92.2719V29.2533C92.2719 53.5677 113.114 77.1223 153.092 83.0109L143.429 102.956C97.956 94.9782 71.0512 66.2948 71.0512 29.2533V22.9847ZM13.0734 13.2969H145.134V33.4323H13.0734V13.2969Z" fill="white"/>
<path d="M294.611 0H320V98.2074H294.611V0ZM183.203 74.8428H198.55C232.654 74.8428 254.822 74.2729 280.211 69.9039L283.053 90.2293C256.906 94.4083 233.602 95.1681 198.55 95.1681H183.203V74.8428ZM183.013 7.97817H263.727V60.4061H208.023V88.1397H183.203V41.4105H238.907V27.9236H183.013V7.97817ZM203.286 105.426H228.107V120.242H294.99V105.426H320V174H203.286V105.426ZM228.107 139.618V153.865H294.99V139.618H228.107Z" fill="white"/>
</svg>
