<svg width="135" height="76" viewBox="0 0 135 76" fill="none" xmlns="http://www.w3.org/2000/svg">
<path d="M1.42067 43.8763H1.46235L2.38651 46.3674H3.42483L4.34899 43.8763H4.39067L4.61899 47.1465H5.81134L5.44893 41.9559H4.09893L2.92832 45.1228H2.88483L1.71242 41.9559H0.362416L0 47.1465H1.19235L1.42067 43.8763Z" fill="black"/>
<path d="M9.18181 43.9597C9.03141 43.9379 8.87919 43.9289 8.71973 43.9289C8.39537 43.9289 8.10181 43.9742 7.84087 44.0629C7.58356 44.1517 7.37879 44.3166 7.22839 44.5557C7.08161 44.7931 7.0055 45.1391 7.0055 45.5884C7.0055 46.0377 7.07799 46.3819 7.22477 46.6211C7.36792 46.8602 7.56544 47.0251 7.81188 47.1139C8.05651 47.2045 8.32651 47.2479 8.61463 47.2479C8.90275 47.2479 9.13289 47.2045 9.31591 47.1193C9.49893 47.0323 9.64752 46.9381 9.75624 46.8331H9.80879L9.96463 47.1447H10.8471V43.6154C10.8471 43.1317 10.7656 42.7621 10.6097 42.5085C10.4503 42.2566 10.2129 42.0827 9.89758 41.9903C9.58228 41.8961 9.19087 41.8508 8.71973 41.8508C8.51134 41.8508 8.29208 41.8708 8.06013 41.9124C7.82819 41.9541 7.63248 42.003 7.47302 42.0574V42.5755H8.51134C8.85201 42.5755 9.11839 42.6444 9.31047 42.7839C9.50618 42.9234 9.60222 43.1987 9.60222 43.6136V44.0285C9.46993 44.0013 9.3304 43.9778 9.18362 43.956L9.18181 43.9597ZM9.60222 46.3149C9.55329 46.3638 9.48081 46.4109 9.37933 46.4562C9.27966 46.5015 9.16188 46.5233 9.03141 46.5233C8.91362 46.5233 8.79584 46.4961 8.67262 46.4399C8.55302 46.3856 8.45154 46.2895 8.37181 46.1537C8.29389 46.0196 8.25403 45.8294 8.25403 45.5884C8.25403 45.3475 8.29389 45.159 8.37181 45.0231C8.45336 44.8891 8.55302 44.7931 8.67262 44.7369C8.79403 44.6825 8.91362 44.6536 9.03141 44.6536H9.60222V46.3149Z" fill="black"/>
<path d="M13.7011 47.1465V42.7349H15.727V41.9559H12.4562V47.1465H13.7011Z" fill="black"/>
<path d="M19.1881 41.9921C18.8728 41.8979 18.4814 41.8526 18.0103 41.8526C17.8019 41.8526 17.5826 41.8726 17.3507 41.9142C17.1187 41.9559 16.923 42.0048 16.7636 42.0592V42.5773H17.8019C18.1426 42.5773 18.4089 42.6462 18.601 42.7857C18.7967 42.9252 18.8928 43.2006 18.8928 43.6154V44.0303C18.7605 44.0031 18.6209 43.9796 18.4742 43.9579C18.3238 43.9361 18.1715 43.9271 18.0121 43.9271C17.6877 43.9271 17.3942 43.9723 17.1332 44.0611C16.8759 44.1499 16.6711 44.3148 16.5207 44.5539C16.374 44.7912 16.2979 45.1373 16.2979 45.5866C16.2979 46.0359 16.3703 46.3801 16.5171 46.6193C16.6603 46.8584 16.8578 47.0233 17.1042 47.1121C17.3489 47.2027 17.6189 47.2461 17.907 47.2461C18.1951 47.2461 18.4252 47.2027 18.6083 47.1175C18.7913 47.0305 18.9399 46.9363 19.0486 46.8312H19.1011L19.257 47.1429H20.1395V43.6136C20.1395 43.1299 20.0579 42.7603 19.9021 42.5067C19.7426 42.2548 19.5052 42.0809 19.1899 41.9885L19.1881 41.9921ZM18.8928 46.3149C18.8438 46.3638 18.7713 46.4109 18.6699 46.4562C18.5702 46.5015 18.4524 46.5233 18.3219 46.5233C18.2042 46.5233 18.0864 46.4961 17.9632 46.4399C17.8436 46.3856 17.7421 46.2895 17.6623 46.1537C17.5844 46.0196 17.5446 45.8294 17.5446 45.5884C17.5446 45.3475 17.5844 45.159 17.6623 45.0231C17.7439 44.8891 17.8436 44.7931 17.9632 44.7369C18.0846 44.6825 18.2042 44.6536 18.3219 44.6536H18.8928V46.3149Z" fill="black"/>
<path d="M23.9013 47.1211C24.2438 47.0342 24.4975 46.8784 24.6624 46.6537C24.8291 46.429 24.9125 46.1084 24.9125 45.6935C24.9125 45.4308 24.8599 45.2134 24.7512 45.0449C24.6443 44.8746 24.5102 44.7369 24.3507 44.6336C24.1913 44.5304 24.0318 44.4579 23.8742 44.4162V44.3745C24.0318 44.3256 24.184 44.2622 24.3254 44.1825C24.4667 44.1046 24.5827 43.9905 24.6733 43.8401C24.7621 43.6915 24.8074 43.4959 24.8074 43.2531C24.8074 42.7078 24.628 42.3364 24.2674 42.1425C23.9068 41.9487 23.3777 41.8526 22.6782 41.8526C22.4227 41.8526 22.1744 41.8726 21.9316 41.9142C21.6888 41.9559 21.4895 42.0048 21.33 42.0592V42.5773H22.4716C22.7833 42.5773 23.0334 42.6317 23.2236 42.744C23.4139 42.8545 23.5099 43.0411 23.5099 43.3038C23.5099 43.5883 23.423 43.7876 23.2508 43.9053C23.0768 44.0231 22.8884 44.0811 22.68 44.0811H21.9026V44.8076H22.7851C22.9917 44.8076 23.1819 44.8692 23.3559 44.9905C23.5299 45.1119 23.615 45.3275 23.615 45.6391C23.615 45.9779 23.519 46.2098 23.3287 46.3348C23.1385 46.4598 22.8884 46.5214 22.5767 46.5214H21.2267V47.0414C21.3862 47.0903 21.5873 47.1356 21.8283 47.1809C22.0711 47.2262 22.3194 47.2479 22.5767 47.2479C23.1167 47.2479 23.557 47.2045 23.8995 47.1193L23.9013 47.1211Z" fill="black"/>
<path d="M26.2099 41.9559V47.1465H27.4548L28.9099 43.8763H28.9607V47.1465H30.1548V41.9559H28.8048L27.4548 45.1228H27.4041V41.9559H26.2099Z" fill="black"/>
<path d="M34.4114 44.1354H33.0089V41.9559H31.764V47.1465H33.0089V44.9144H34.4114V47.1465H35.6563V41.9559H34.4114V44.1354Z" fill="black"/>
<path d="M43.5987 46.2116L43.3921 45.3819C43.316 45.0703 43.1928 44.842 43.0279 44.697C42.863 44.5521 42.6854 44.4597 42.4987 44.418V44.3764C42.6582 44.3347 42.8013 44.2459 42.93 44.1064C43.0587 43.9687 43.1783 43.7549 43.2888 43.4633L43.5479 42.7893C43.5805 42.7132 43.6403 42.6425 43.7237 42.5773C43.8089 42.5121 43.9375 42.4795 44.1187 42.4795V41.9595C43.8487 41.8907 43.6222 41.8563 43.4428 41.8563C43.1311 41.8563 42.8901 41.9287 42.7162 42.0737C42.5422 42.2186 42.4045 42.4233 42.3012 42.686L41.9895 43.4651C41.8989 43.7006 41.8174 43.8546 41.7449 43.9271C41.6724 43.9995 41.5981 44.0358 41.522 44.0358H41.3644V41.9595H40.1195V47.1501H41.3644V44.8148H41.522C41.8047 44.8148 41.995 45.005 42.0928 45.3855L42.3501 46.3711C42.419 46.6265 42.5513 46.8385 42.7452 47.0034C42.9373 47.17 43.2036 47.2516 43.5443 47.2516C43.7237 47.2516 43.9484 47.2171 44.2184 47.1483V46.6301C44.039 46.6301 43.8977 46.5867 43.7926 46.4997C43.6911 46.4127 43.624 46.3185 43.595 46.2135L43.5987 46.2116Z" fill="black"/>
<path d="M48.1089 42.1171C47.7991 41.9396 47.4221 41.8526 46.9709 41.8526C46.5197 41.8526 46.1428 41.9396 45.8348 42.1171C45.5267 42.2929 45.293 42.5791 45.1335 42.9741C44.974 43.3672 44.8961 43.8944 44.8961 44.5521C44.8961 45.2098 44.974 45.7352 45.1335 46.1301C45.293 46.5233 45.5267 46.8095 45.8348 46.9871C46.141 47.1628 46.5215 47.2516 46.9709 47.2516C47.4203 47.2516 47.7991 47.1646 48.1089 46.9871C48.4152 46.8095 48.6507 46.5251 48.8102 46.1301C48.9697 45.7352 49.0476 45.2098 49.0476 44.5521C49.0476 43.8944 48.9697 43.3672 48.8102 42.9741C48.6507 42.5791 48.417 42.2947 48.1089 42.1171ZM47.694 45.7913C47.6215 46.0848 47.5218 46.2895 47.3986 46.4037C47.2717 46.5178 47.1304 46.5758 46.9709 46.5758C46.8115 46.5758 46.6792 46.5178 46.5523 46.4037C46.4255 46.2895 46.324 46.0866 46.2515 45.7913C46.1791 45.4978 46.1428 45.0829 46.1428 44.5521C46.1428 44.0213 46.1791 43.5973 46.2515 43.3056C46.324 43.0158 46.4255 42.8128 46.5523 42.6987C46.681 42.5846 46.8205 42.5266 46.9709 42.5266C47.1304 42.5266 47.2717 42.5828 47.3986 42.6987C47.5218 42.8128 47.6215 43.0158 47.694 43.3056C47.7664 43.5955 47.8027 44.0122 47.8027 44.5521C47.8027 45.092 47.7664 45.4978 47.694 45.7913Z" fill="black"/>
<path d="M51.6407 46.9907C51.753 47.0668 51.8835 47.1302 52.0303 47.1773C52.1807 47.2262 52.3438 47.2498 52.525 47.2498C52.9055 47.2498 53.2353 47.1628 53.5162 46.9852C53.797 46.8077 54.0127 46.5233 54.1667 46.1283C54.3189 45.7333 54.395 45.2079 54.395 44.5503C54.395 43.8926 54.3207 43.3654 54.1703 42.9723C54.0236 42.5773 53.8134 42.2929 53.5488 42.1153C53.2824 41.9378 52.9762 41.8508 52.6301 41.8508C52.3474 41.8508 52.1136 41.8943 51.9288 41.9813C51.7458 42.0682 51.6008 42.1624 51.4885 42.2675H51.4377L51.2819 41.9559H50.3994V49.2209H51.6443V46.9889L51.6407 46.9907ZM51.6407 42.7875C51.7168 42.7331 51.7983 42.6824 51.8853 42.6425C51.9723 42.6009 52.0828 42.5809 52.2115 42.5809C52.3854 42.5809 52.5431 42.6353 52.6844 42.7476C52.8258 42.8581 52.9399 43.0574 53.0233 43.3437C53.1066 43.6317 53.1465 44.0339 53.1465 44.5539C53.1465 45.0739 53.1048 45.4743 53.0233 45.7569C52.9399 46.0395 52.8258 46.2388 52.6844 46.353C52.5431 46.4671 52.3854 46.5251 52.2115 46.5251C52.081 46.5251 51.9668 46.5033 51.869 46.458C51.773 46.4127 51.6968 46.3656 51.6407 46.3167V42.7875Z" fill="black"/>
<path d="M58.5211 42.1171C58.2276 41.9396 57.8742 41.8526 57.4575 41.8526C57.0407 41.8526 56.6873 41.9396 56.3919 42.1171C56.0984 42.2929 55.8737 42.5791 55.7179 42.9741C55.5602 43.3672 55.4841 43.8944 55.4841 44.5521C55.4841 45.2098 55.5675 45.7352 55.7323 46.1301C55.8991 46.5233 56.1564 46.8095 56.5025 46.9871C56.8468 47.1628 57.2889 47.2516 57.8199 47.2516C58.0844 47.2516 58.3363 47.2298 58.5773 47.1845C58.8201 47.1392 59.0158 47.0921 59.1699 47.045V46.5251H58.0283C57.5861 46.5251 57.2581 46.4055 57.0461 46.1663C56.8359 45.929 56.7308 45.5105 56.7308 44.9163H59.4308V44.5539C59.4308 43.8963 59.3529 43.369 59.197 42.9759C59.0412 42.5809 58.8165 42.2965 58.5211 42.119V42.1171ZM56.7308 44.1879C56.7308 43.7386 56.7598 43.3944 56.8232 43.1553C56.8866 42.9179 56.9736 42.7531 57.0824 42.6625C57.1929 42.5737 57.3161 42.5284 57.4556 42.5284C57.5952 42.5284 57.7184 42.5737 57.8289 42.6625C57.9395 42.7531 58.0264 42.9179 58.0862 43.1553C58.1497 43.3944 58.1805 43.7386 58.1805 44.1879H56.7272H56.7308Z" fill="black"/>
<path d="M61.8372 41.1732C62.071 41.3146 62.3591 41.3852 62.698 41.3852C63.0368 41.3852 63.3268 41.3146 63.5642 41.1732C63.8052 41.0319 63.9991 40.8417 64.1513 40.608L63.633 40.0898C63.5279 40.1949 63.3993 40.2891 63.2434 40.3761C63.0876 40.463 62.9064 40.5065 62.698 40.5065C62.4896 40.5065 62.3084 40.463 62.1525 40.3761C61.9967 40.2891 61.8662 40.1949 61.7648 40.0898L61.2447 40.608C61.4042 40.8435 61.6017 41.0319 61.8372 41.1732Z" fill="black"/>
<path d="M62.0221 45.1228H61.9713V41.9559H60.779V47.1465H62.0221L63.4772 43.8763H63.5297V47.1465H64.7221V41.9559H63.3739L62.0221 45.1228Z" fill="black"/>
<path d="M67.8425 46.3511C67.674 46.237 67.5435 46.0377 67.4529 45.7551C67.3623 45.4725 67.3188 45.0703 67.3188 44.5521C67.3188 44.0339 67.3623 43.6299 67.4493 43.3419C67.5344 43.0538 67.6558 42.8563 67.8117 42.7458C67.9675 42.6353 68.1487 42.5791 68.3571 42.5791H69.4987V42.061C69.3465 42.0066 69.149 41.9559 68.9062 41.916C68.6634 41.8744 68.4115 41.8544 68.1487 41.8544C67.6993 41.8544 67.3206 41.9414 67.0126 42.119C66.7063 42.2947 66.4707 42.5809 66.3113 42.9759C66.1518 43.369 66.0739 43.8963 66.0739 44.5539C66.0739 45.2116 66.1554 45.737 66.3185 46.1319C66.4798 46.5251 66.7226 46.8113 67.0452 46.9889C67.3659 47.1646 67.77 47.2534 68.2538 47.2534C68.5184 47.2534 68.7703 47.2316 69.0113 47.1864C69.2541 47.1411 69.4498 47.0939 69.6038 47.0468V46.5269H68.4622C68.2194 46.5269 68.0128 46.4689 67.8443 46.3548L67.8425 46.3511Z" fill="black"/>
<path d="M73.3186 46.9997C73.5107 47.1664 73.7771 47.2479 74.1177 47.2479C74.2971 47.2479 74.5218 47.2135 74.7918 47.1447V46.6265C74.6124 46.6265 74.4711 46.583 74.366 46.4961C74.2627 46.4091 74.1974 46.3149 74.1685 46.2098L73.9619 45.3801C73.8858 45.0684 73.7626 44.8402 73.5976 44.6952C73.4327 44.5503 73.2552 44.4579 73.0685 44.4162V44.3745C73.228 44.3329 73.3711 44.2441 73.4998 44.1046C73.6285 43.9669 73.7481 43.7531 73.8586 43.4614L74.1177 42.7875C74.1503 42.7114 74.2101 42.6407 74.2935 42.5755C74.3787 42.5103 74.5073 42.4777 74.6885 42.4777V41.9577C74.4185 41.8889 74.192 41.8544 74.0126 41.8544C73.7009 41.8544 73.4599 41.9269 73.286 42.0718C73.112 42.2168 72.9743 42.4215 72.871 42.6842L72.5593 43.4633C72.4687 43.6988 72.3872 43.8528 72.3147 43.9252C72.2422 43.9977 72.1679 44.034 72.0918 44.034H71.9342V41.9577H70.6893V47.1483H71.9342V44.813H72.0918C72.3745 44.813 72.5648 45.0032 72.6626 45.3837L72.9199 46.3693C72.9888 46.6247 73.1211 46.8367 73.315 47.0016L73.3186 46.9997Z" fill="black"/>
<path d="M78.6805 42.1171C78.3707 41.9396 77.9938 41.8526 77.5426 41.8526C77.0913 41.8526 76.7144 41.9396 76.4064 42.1171C76.1001 42.2929 75.8646 42.5791 75.7051 42.9741C75.5456 43.3672 75.4677 43.8944 75.4677 44.5521C75.4677 45.2098 75.5456 45.7352 75.7051 46.1301C75.8646 46.5233 76.0983 46.8095 76.4064 46.9871C76.7144 47.1628 77.0932 47.2516 77.5426 47.2516C77.992 47.2516 78.3707 47.1646 78.6805 46.9871C78.9868 46.8095 79.2224 46.5251 79.3818 46.1301C79.5413 45.7352 79.6192 45.2098 79.6192 44.5521C79.6192 43.8944 79.5413 43.3672 79.3818 42.9741C79.2224 42.5791 78.9886 42.2947 78.6805 42.1171ZM78.2656 45.7913C78.1931 46.0848 78.0934 46.2895 77.9702 46.4037C77.8434 46.5178 77.702 46.5758 77.5426 46.5758C77.3831 46.5758 77.2508 46.5178 77.124 46.4037C76.9953 46.2895 76.8956 46.0866 76.8232 45.7913C76.7507 45.4978 76.7144 45.0829 76.7144 44.5521C76.7144 44.0213 76.7507 43.5973 76.8232 43.3056C76.8956 43.0158 76.9971 42.8128 77.124 42.6987C77.2526 42.5846 77.3922 42.5266 77.5426 42.5266C77.702 42.5266 77.8434 42.5828 77.9702 42.6987C78.0934 42.8128 78.1931 43.0158 78.2656 43.3056C78.3381 43.5955 78.3743 44.0122 78.3743 44.5521C78.3743 45.092 78.3381 45.4978 78.2656 45.7913Z" fill="black"/>
<path d="M82.2123 45.1228H82.1615V41.9559H80.9692V47.1465H82.2123L83.6674 43.8763H83.7181V47.1465H84.9123V41.9559H83.5641L82.2123 45.1228Z" fill="black"/>
<path d="M82.8882 40.5029C82.6816 40.5029 82.4986 40.4594 82.3428 40.3725C82.1869 40.2855 82.0564 40.1913 81.955 40.0862L81.4349 40.6044C81.5944 40.8399 81.7919 41.0283 82.0275 41.1696C82.2612 41.3109 82.5493 41.3816 82.8882 41.3816C83.2271 41.3816 83.517 41.3109 83.7544 41.1696C83.9954 41.0283 84.1893 40.8381 84.3415 40.6044L83.8232 40.0862C83.7181 40.1913 83.5895 40.2855 83.4336 40.3725C83.2778 40.4594 83.0966 40.5029 82.8882 40.5029Z" fill="black"/>
<path d="M92.8546 46.2116L92.6481 45.3819C92.5719 45.0703 92.4487 44.842 92.2838 44.697C92.1189 44.5521 91.9413 44.4597 91.7547 44.418V44.3764C91.9142 44.3347 92.0573 44.2459 92.186 44.1064C92.3146 43.9687 92.4342 43.7549 92.5448 43.4633L92.8039 42.7893C92.8365 42.7132 92.8963 42.6425 92.9797 42.5773C93.0648 42.5121 93.1935 42.4795 93.3747 42.4795V41.9595C93.1047 41.8907 92.8782 41.8563 92.6988 41.8563C92.3871 41.8563 92.1461 41.9287 91.9721 42.0737C91.7982 42.2186 91.6605 42.4233 91.5572 42.686L91.2455 43.4651C91.1549 43.7006 91.0734 43.8546 91.0009 43.9271C90.9284 43.9995 90.8541 44.0358 90.778 44.0358H90.6203V41.9595H89.3754V47.1501H90.6203V44.8148H90.778C91.0607 44.8148 91.2509 45.005 91.3488 45.3855L91.6061 46.3711C91.675 46.6265 91.8073 46.8385 92.0011 47.0034C92.1932 47.17 92.4596 47.2516 92.8003 47.2516C92.9797 47.2516 93.2044 47.2171 93.4744 47.1483V46.6301C93.295 46.6301 93.1536 46.5867 93.0485 46.4997C92.947 46.4127 92.88 46.3185 92.851 46.2135L92.8546 46.2116Z" fill="black"/>
<path d="M95.0907 46.9852C95.397 47.161 95.7775 47.2498 96.2269 47.2498C96.6763 47.2498 97.055 47.1628 97.3649 46.9852C97.6711 46.8077 97.9067 46.5233 98.0662 46.1283C98.2256 45.7333 98.3036 45.2079 98.3036 44.5503C98.3036 43.8926 98.2256 43.3654 98.0662 42.9723C97.9067 42.5773 97.673 42.2929 97.3649 42.1153C97.055 41.9378 96.6781 41.8508 96.2269 41.8508C95.7757 41.8508 95.3988 41.9378 95.0907 42.1153C94.7827 42.2911 94.5489 42.5773 94.3895 42.9723C94.23 43.3654 94.1521 43.8926 94.1521 44.5503C94.1521 45.2079 94.23 45.7333 94.3895 46.1283C94.5489 46.5214 94.7827 46.8077 95.0907 46.9852ZM95.5057 43.3056C95.5782 43.0158 95.6797 42.8128 95.8065 42.6987C95.9352 42.5846 96.0747 42.5266 96.2251 42.5266C96.3846 42.5266 96.5259 42.5828 96.6528 42.6987C96.776 42.8128 96.8756 43.0158 96.9481 43.3056C97.0206 43.5955 97.0568 44.0122 97.0568 44.5521C97.0568 45.092 97.0206 45.4978 96.9481 45.7913C96.8756 46.0848 96.776 46.2895 96.6528 46.4037C96.5259 46.5178 96.3846 46.5758 96.2251 46.5758C96.0656 46.5758 95.9334 46.5178 95.8065 46.4037C95.6779 46.2895 95.5782 46.0866 95.5057 45.7913C95.4332 45.4978 95.397 45.0829 95.397 44.5521C95.397 44.0213 95.4332 43.5973 95.5057 43.3056Z" fill="black"/>
<path d="M101.132 42.7458C101.288 42.6353 101.469 42.5791 101.678 42.5791H102.819V42.061C102.667 42.0066 102.47 41.9559 102.227 41.916C101.984 41.8744 101.732 41.8544 101.469 41.8544C101.02 41.8544 100.641 41.9414 100.333 42.119C100.027 42.2947 99.7913 42.5809 99.6318 42.9759C99.4724 43.369 99.3944 43.8963 99.3944 44.5539C99.3944 45.2116 99.476 45.737 99.6391 46.1319C99.8003 46.5251 100.043 46.8113 100.366 46.9889C100.686 47.1646 101.091 47.2534 101.574 47.2534C101.839 47.2534 102.091 47.2316 102.332 47.1864C102.575 47.1411 102.77 47.0939 102.924 47.0468V46.5269H101.783C101.54 46.5269 101.333 46.4689 101.165 46.3548C100.996 46.2406 100.866 46.0413 100.775 45.7587C100.685 45.4761 100.641 45.0739 100.641 44.5557C100.641 44.0376 100.685 43.6336 100.772 43.3455C100.857 43.0574 100.978 42.86 101.134 42.7494L101.132 42.7458Z" fill="black"/>
<path d="M108.248 43.8763L108.477 47.1465H109.669L109.307 41.9559H107.957L106.786 45.1228H106.742L105.57 41.9559H104.22L103.858 47.1465H105.05L105.278 43.8763H105.32L106.244 46.3674H107.284L108.207 43.8763H108.248Z" fill="black"/>
<path d="M113.9 42.1171C113.607 41.9396 113.253 41.8526 112.836 41.8526C112.42 41.8526 112.066 41.9396 111.771 42.1171C111.477 42.2929 111.253 42.5791 111.097 42.9741C110.939 43.3672 110.863 43.8944 110.863 44.5521C110.863 45.2098 110.946 45.7352 111.111 46.1301C111.278 46.5233 111.535 46.8095 111.881 46.9871C112.226 47.1628 112.668 47.2516 113.199 47.2516C113.463 47.2516 113.715 47.2298 113.956 47.1845C114.199 47.1392 114.395 47.0921 114.549 47.045V46.5251H113.407C112.965 46.5251 112.637 46.4055 112.425 46.1663C112.215 45.929 112.11 45.5105 112.11 44.9163H114.81V44.5539C114.81 43.8963 114.732 43.369 114.576 42.9759C114.42 42.5809 114.196 42.2965 113.9 42.119V42.1171ZM112.112 44.1879C112.112 43.7386 112.141 43.3944 112.204 43.1553C112.267 42.9179 112.354 42.7531 112.463 42.6625C112.574 42.5737 112.697 42.5284 112.836 42.5284C112.976 42.5284 113.099 42.5737 113.21 42.6625C113.32 42.7531 113.407 42.9179 113.467 43.1553C113.53 43.3944 113.561 43.7386 113.561 44.1879H112.108H112.112Z" fill="black"/>
<path d="M116.783 47.1465H118.03V42.7349H119.327V41.9559H115.486V42.7349H116.783V47.1465Z" fill="black"/>
<path d="M123.064 43.8763H123.115V47.1465H124.307V41.9559H122.959L121.609 45.1228H121.558V41.9559H120.364V47.1465H121.609L123.064 43.8763Z" fill="black"/>
<path d="M125.918 41.9559V47.1465H127.163V44.8112H127.32C127.603 44.8112 127.793 45.0014 127.891 45.3819L128.149 46.3674C128.217 46.6229 128.35 46.8349 128.544 46.9997C128.736 47.1664 129.002 47.2479 129.343 47.2479C129.522 47.2479 129.747 47.2135 130.017 47.1447V46.6265C129.837 46.6265 129.696 46.583 129.591 46.4961C129.489 46.4091 129.422 46.3149 129.393 46.2098L129.187 45.3801C129.111 45.0684 128.988 44.8402 128.823 44.6952C128.658 44.5503 128.48 44.4579 128.293 44.4162V44.3745C128.453 44.3329 128.596 44.2441 128.725 44.1046C128.853 43.9669 128.973 43.7531 129.084 43.4614L129.343 42.7875C129.375 42.7114 129.435 42.6407 129.518 42.5755C129.604 42.5103 129.732 42.4777 129.913 42.4777V41.9577C129.643 41.8889 129.417 41.8544 129.238 41.8544C128.926 41.8544 128.685 41.9269 128.511 42.0718C128.337 42.2168 128.199 42.4215 128.096 42.6842L127.784 43.4633C127.694 43.6988 127.612 43.8528 127.54 43.9252C127.467 43.9977 127.393 44.034 127.317 44.034H127.159V41.9577H125.914L125.918 41.9559Z" fill="black"/>
<path d="M132.3 45.1228H132.249V41.9559H131.057V47.1465H132.3L133.755 43.8763H133.808V47.1465H135V41.9559H133.652L132.3 45.1228Z" fill="black"/>
<path d="M9.21081 64.0952H8.06013C8.12899 63.3125 8.16524 62.3432 8.16524 61.191V56.5095H0.523691V60.4337H3.53356V61.191C3.53356 61.7327 3.51544 62.4393 3.48101 63.3125H0.523691V67.2367H2.95732C2.67826 68.3527 2.29409 69.2513 1.80664 69.9307C1.31738 70.6101 0.715772 71.1083 0 71.4218L1.04738 75.346C4.79839 74.509 7.0653 71.3874 7.85175 65.9794V68.0194H9.21262V75.8678H13.8697V56.245H9.21262V64.0934L9.21081 64.0952Z" fill="black"/>
<path d="M19.3639 56.1145H14.7068V75.9982H19.3639V56.1145Z" fill="black"/>
<path d="M28.3663 56.6128C26.4473 56.6128 24.9904 57.12 23.9956 58.131C23.0007 59.1419 22.5042 60.6257 22.5042 62.5788V69.5376C22.5042 71.4906 23.0007 72.9744 23.9956 73.9854C24.9904 74.9963 26.4455 75.5018 28.3663 75.5018C30.2871 75.5018 31.7422 74.9963 32.737 73.9854C33.7319 72.9744 34.2284 71.4906 34.2284 69.5376V62.5788C34.2284 60.6257 33.7319 59.1419 32.737 58.131C31.7422 57.12 30.2853 56.6128 28.3663 56.6128ZM29.334 70.5848C29.334 71.2479 29.0114 71.5794 28.3663 71.5794C27.7212 71.5794 27.3987 71.2479 27.3987 70.5848V61.5316C27.3987 60.8703 27.7212 60.5369 28.3663 60.5369C29.0114 60.5369 29.334 60.8685 29.334 61.5316V70.5848Z" fill="black"/>
<path d="M40.8751 56.1145H35.9553V75.9982H40.8751V56.1145Z" fill="black"/>
<path d="M62.5929 65.2728H51.0789V66.8417H62.5929V65.2728Z" fill="black"/>
<path d="M91.1168 56.1145H86.1971V76H91.1168V67.599H93.0793V63.6767H91.1168V56.1145Z" fill="black"/>
<path d="M78.686 56.2468C76.7489 56.2468 75.2847 56.7432 74.2899 57.7378C73.295 58.7325 72.7985 60.1963 72.7985 62.1349V69.9833C72.7985 71.92 73.295 73.3839 74.2899 74.3785C75.2847 75.3731 76.7489 75.8696 78.686 75.8696C80.6231 75.8696 82.0872 75.3731 83.0821 74.3785C84.0769 73.3839 84.5734 71.92 84.5734 69.9833V62.1349C84.5734 60.1981 84.0769 58.7325 83.0821 57.7378C82.0872 56.7432 80.6231 56.2468 78.686 56.2468ZM79.6029 71.0286C79.6029 71.6392 79.2966 71.9454 78.686 71.9454C78.0753 71.9454 77.7709 71.6392 77.7709 71.0286V61.0859C77.7709 60.4753 78.0753 60.171 78.686 60.171C79.2966 60.171 79.6029 60.4772 79.6029 61.0859V71.0286Z" fill="black"/>
<path d="M113.019 56.1145H108.1V75.9982H113.019V56.1145Z" fill="black"/>
<path d="M100.511 56.6128C98.5917 56.6128 97.1348 57.12 96.1399 58.131C95.1451 59.1419 94.6486 60.6257 94.6486 62.5788V69.5376C94.6486 71.4906 95.1451 72.9744 96.1399 73.9854C97.1348 74.9963 98.5899 75.5018 100.511 75.5018C102.431 75.5018 103.887 74.9963 104.881 73.9854C105.876 72.9744 106.373 71.4906 106.373 69.5376V62.5788C106.373 60.6257 105.876 59.1419 104.881 58.131C103.887 57.12 102.43 56.6128 100.511 56.6128ZM101.478 70.5848C101.478 71.2479 101.156 71.5794 100.511 71.5794C99.8656 71.5794 99.543 71.2479 99.543 70.5848V61.5316C99.543 60.8703 99.8656 60.5369 100.511 60.5369C101.156 60.5369 101.478 60.8685 101.478 61.5316V70.5848Z" fill="black"/>
<path d="M128.301 62.2381H134.476V59.6999H121.576V58.8357H134.476V56.2468H116.682V62.2381H123.381V63.048H116.158V65.8996H135V63.048H128.301V62.2381Z" fill="black"/>
<path d="M121.576 72.5451H134.476V66.6316H116.682V69.2223H129.557V69.9561H116.682V75.8678H134.737V73.277H121.576V72.5451Z" fill="black"/>
<path d="M14.5184 5.55112H8.70161C7.6343 8.747 6.56698 11.9429 5.49966 15.1388V5.55112H0V29.0329H5.50148V19.5557L8.49322 29.0347H14.4205L10.4648 17.3056C11.8166 13.3886 13.1666 9.47169 14.5184 5.55475V5.55112Z" fill="black"/>
<path d="M22.3158 29.3699C20.645 29.3699 19.315 29.0564 18.3238 28.4314C17.3326 27.8045 16.6222 26.9023 16.1946 25.7229C15.7669 24.5434 15.5531 23.1248 15.5531 21.4653V12.0244C15.5531 9.8431 16.1801 8.1908 17.4322 7.06935C18.6844 5.94789 20.4077 5.38625 22.6003 5.38625C27.1105 5.38625 29.3648 7.59837 29.3648 12.0244V13.7311C29.3648 15.7982 29.343 17.186 29.3013 17.8962H21.1597V22.4364C21.1597 22.8531 21.185 23.2643 21.2376 23.6647C21.2901 24.0669 21.4079 24.3985 21.5891 24.6594C21.7721 24.9203 22.0675 25.0507 22.4734 25.0507C23.0587 25.0507 23.423 24.7971 23.5697 24.2916C23.7165 23.7861 23.789 23.1248 23.789 22.3114V20.0576H29.363V21.3874C29.363 23.1411 29.1455 24.6105 28.7124 25.7935C28.2793 26.9784 27.5491 27.8697 26.5198 28.4712C25.4923 29.0709 24.0898 29.3717 22.3158 29.3717V29.3699ZM21.1252 15.108H23.7872V11.9465C23.7872 11.1004 23.6821 10.4935 23.4737 10.1221C23.2653 9.7507 22.9518 9.5659 22.535 9.5659C22.0856 9.5659 21.7395 9.74345 21.4931 10.0985C21.2485 10.4536 21.1252 11.0696 21.1252 11.9465V15.108Z" fill="black"/>
<path d="M47.2119 18.7731V15.1406H55.292V18.7731H47.2119Z" fill="black"/>
<path d="M61.6488 29.3735C60.3441 29.3735 59.3493 29.0709 58.6661 28.4658C57.983 27.8607 57.5154 27.0309 57.2654 25.9765C57.0153 24.9221 56.8903 23.7281 56.8903 22.3911C56.8903 20.9616 57.0316 19.7895 57.3125 18.8764C57.5952 17.9632 58.0772 17.215 58.7603 16.6298C59.4435 16.0446 60.3858 15.55 61.5872 15.1424L65.0628 13.9521V11.5407C65.0628 10.2779 64.6496 9.64562 63.8251 9.64562C63.0731 9.64562 62.698 10.1565 62.698 11.1801V12.5897H57.2491C57.2382 12.5063 57.2328 12.3994 57.2328 12.269V11.8233C57.2328 9.48619 57.7836 7.82846 58.8854 6.85194C59.9871 5.87542 61.7322 5.38807 64.1223 5.38807C65.3744 5.38807 66.4961 5.6091 67.4891 6.05297C68.4803 6.49684 69.2668 7.15087 69.8448 8.01688C70.4247 8.88288 70.7146 9.95361 70.7146 11.2254V29.1198H65.1407V26.3334C64.8689 27.3154 64.4213 28.0654 63.7943 28.5872C63.1673 29.109 62.4534 29.3699 61.6488 29.3699V29.3735ZM63.8559 25.0199C64.3144 25.0199 64.6279 24.826 64.7946 24.4402C64.9613 24.0543 65.0446 23.6357 65.0446 23.1883V16.6443C64.2727 16.9577 63.6711 17.3509 63.2434 17.8256C62.8158 18.3002 62.6019 18.9977 62.6019 19.9163V22.9382C62.6019 24.326 63.0187 25.0199 63.8541 25.0199H63.8559Z" fill="black"/>
<path d="M111.677 29.3699C107 29.3699 104.662 26.944 104.662 22.0903V12.6658C104.662 10.4536 105.284 8.68722 106.525 7.36647C107.768 6.04572 109.484 5.38625 111.677 5.38625C113.869 5.38625 115.602 6.04572 116.845 7.36647C118.088 8.68722 118.708 10.4536 118.708 12.6658V22.0903C118.708 26.944 116.365 29.3699 111.677 29.3699ZM111.677 25.0489C112.146 25.0489 112.483 24.8786 112.686 24.5398C112.889 24.201 112.992 23.7698 112.992 23.248V11.7726C112.992 10.4047 112.554 9.72171 111.677 9.72171C110.8 9.72171 110.361 10.4047 110.361 11.7726V23.248C110.361 23.7698 110.463 24.201 110.667 24.5398C110.87 24.8786 111.207 25.0489 111.677 25.0489Z" fill="black"/>
<path d="M135 5.6399V29.1198H129.299V26.6178C129.296 21.67 129.29 16.724 129.287 11.7762C129.287 10.4084 128.85 9.72352 127.973 9.72352C127.096 9.72352 126.654 10.4084 126.654 11.7762V25.9421C126.596 27.0237 126.32 27.848 125.834 28.4096C125.563 28.7267 125.166 28.9622 124.64 29.1217C124.579 29.1398 124.512 29.1579 124.445 29.176C123.937 29.3046 123.327 29.3717 122.609 29.3717C121.891 29.3717 121.188 29.3137 120.498 29.1941C119.804 29.0745 119.393 28.993 119.26 28.9532V25.1322C119.47 25.1721 119.706 25.1938 119.969 25.1938C120.342 25.1938 120.598 25.1141 120.73 24.9583C120.859 24.8025 120.926 24.5307 120.926 24.143C120.936 20.3185 120.946 16.4921 120.956 12.6676C120.944 11.9646 120.918 8.87564 121.995 7.06572C122.33 6.50046 122.685 6.21059 122.765 6.14537C123.388 5.64171 124.215 5.39169 125.246 5.39169C125.695 5.39169 126.104 5.42792 126.471 5.50764C127.032 5.61816 127.494 5.82469 127.864 6.11819C128.475 6.60373 128.955 7.27951 129.297 8.14913V5.64171H134.998L135 5.6399Z" fill="black"/>
<path d="M35.9698 29.3735C34.7177 29.3735 33.7591 29.1126 33.0958 28.5908C32.4326 28.069 31.9814 27.3407 31.7422 26.4077C31.5012 25.4746 31.3816 24.3804 31.3816 23.1285V5.6399H37.019V22.469C37.019 23.4075 37.0915 24.0633 37.2383 24.4329C37.385 24.8043 37.7293 24.9891 38.2711 24.9891C38.8564 24.9891 39.2243 24.7282 39.3747 24.2064C39.5251 23.6847 39.6012 23.0107 39.6012 22.1864V5.6399H45.1915V29.1235H39.5867V26.6178C39.2315 27.5165 38.8057 28.1995 38.311 28.6687C37.8145 29.138 37.0353 29.3735 35.9698 29.3735Z" fill="black"/>
<path d="M38.2874 4.00753C37.2401 4.00753 36.3521 3.78831 35.6255 3.34988C34.8989 2.91144 34.29 2.32988 33.7971 1.60338L35.4008 0C35.7215 0.320675 36.122 0.614174 36.604 0.882309C37.0842 1.15044 37.646 1.2827 38.2874 1.2827C38.9289 1.2827 39.4907 1.15044 39.9709 0.882309C40.4511 0.615986 40.8534 0.320675 41.1741 0L42.7778 1.60338C42.3066 2.32988 41.7032 2.91325 40.9657 3.34988C40.2282 3.78831 39.3348 4.00753 38.2874 4.00753Z" fill="black"/>
<path d="M77.4012 29.3735C76.1491 29.3735 75.1905 29.1126 74.5273 28.5908C73.864 28.069 73.4128 27.3407 73.1736 26.4077C72.9326 25.4746 72.813 24.3804 72.813 23.1285V5.6399H78.4504V22.469C78.4504 23.4075 78.5229 24.0633 78.6697 24.4329C78.8165 24.8043 79.1607 24.9891 79.7026 24.9891C80.2879 24.9891 80.6557 24.7282 80.8061 24.2064C80.9565 23.6847 81.0326 23.0107 81.0326 22.1864V5.6399H86.6229V29.1235H81.0181V26.6178C80.663 27.5165 80.2371 28.1995 79.7424 28.6687C79.2459 29.138 78.4667 29.3735 77.4012 29.3735Z" fill="black"/>
<path d="M79.7189 4.00753C78.6715 4.00753 77.7836 3.78831 77.0569 3.34988C76.3303 2.91144 75.7214 2.32988 75.2285 1.60338L76.8322 0C77.153 0.320675 77.5534 0.614174 78.0354 0.882309C78.5156 1.15044 79.0774 1.2827 79.7189 1.2827C80.3603 1.2827 80.9221 1.15044 81.4023 0.882309C81.8825 0.615986 82.2848 0.320675 82.6055 0L84.2092 1.60338C83.7381 2.32988 83.1346 2.91325 82.3971 3.34988C81.6596 3.78831 80.7662 4.00753 79.7189 4.00753Z" fill="black"/>
<path d="M97.113 5.64171V8.28864C96.9173 7.40089 96.5277 6.69613 95.9479 6.17436C95.5691 5.83375 95.0944 5.60366 94.5145 5.48952C94.2119 5.4243 93.8821 5.3935 93.5269 5.3935C92.3056 5.3935 91.3542 5.66526 90.6765 6.20515C89.9988 6.74867 89.524 7.50416 89.2522 8.468C88.984 9.43365 88.8463 10.5479 88.8463 11.8124V23.3151C88.8463 24.4293 89.004 25.4438 89.3175 26.3515C89.6309 27.2592 90.1293 27.9785 90.8197 28.5111C91.5101 29.0437 92.4125 29.3083 93.5287 29.3083C93.8857 29.3083 94.2137 29.2811 94.5163 29.2285C95.8808 28.9876 96.7452 28.214 97.113 26.9005V29.2032C97.113 30.1181 96.8938 30.8663 96.457 31.4407C96.0276 32.0005 95.3807 32.2867 94.5145 32.2994C94.4909 32.303 94.4728 32.303 94.4493 32.303C93.0811 32.303 91.7148 31.8972 90.3503 31.0819L88.8445 33.6564L88.4531 34.3231C88.5836 34.43 88.714 34.5333 88.8445 34.6329C89.3301 34.9971 89.814 35.2924 90.2996 35.5134C90.9157 35.7924 91.6134 35.9881 92.3907 36.0986C93.0032 36.1874 93.7081 36.2363 94.5127 36.2562C94.7319 36.2598 94.953 36.2635 95.1868 36.2635C95.8772 36.2635 96.5169 36.2254 97.1094 36.1439C98.7874 35.9247 100.083 35.3938 100.985 34.5459C102.212 33.4046 102.825 31.5004 102.825 28.839V5.64171H97.1094H97.113ZM97.113 22.7009C97.113 24.2862 96.6763 25.0833 95.7993 25.0833C95.2248 25.0833 94.8679 24.8261 94.7265 24.3133C94.5852 23.8042 94.5163 23.2643 94.5163 22.7009V11.6548C94.5163 11.1294 94.5816 10.6711 94.7193 10.2689C94.8534 9.86665 95.194 9.66736 95.7377 9.66736C96.1635 9.66736 96.5005 9.8902 96.7452 10.3377C96.9898 10.7888 97.113 11.2254 97.113 11.6548V22.7009Z" fill="black"/>
</svg>
