<svg width="715" height="192" viewBox="0 0 715 192" fill="none" xmlns="http://www.w3.org/2000/svg">
<path d="M76.8937 29.3909H46.0863C40.4335 46.3118 34.7807 63.2326 29.1279 80.1535V29.3909H0V153.717H29.1375V103.54L44.9826 153.727H76.3754L55.4245 91.6259C62.5841 70.8873 69.7341 50.1487 76.8937 29.4101V29.3909Z" fill="white"/>
<path d="M118.191 155.501C109.342 155.501 102.298 153.842 97.0481 150.532C91.7983 147.213 88.0362 142.436 85.7712 136.192C83.5062 129.947 82.3738 122.436 82.3738 113.65V63.6643C82.3738 52.1151 85.6944 43.3669 92.3262 37.4293C98.9579 31.4916 108.085 28.518 119.698 28.518C143.585 28.518 155.525 40.2302 155.525 63.6643V72.7002C155.525 83.6451 155.409 90.9928 155.189 94.753H112.068V118.791C112.068 120.998 112.202 123.175 112.481 125.295C112.759 127.424 113.383 129.18 114.342 130.561C115.312 131.942 116.876 132.633 119.026 132.633C122.126 132.633 124.055 131.29 124.832 128.614C125.61 125.938 125.994 122.436 125.994 118.129V106.197H155.515V113.237C155.515 122.523 154.363 130.302 152.069 136.566C149.776 142.839 145.908 147.559 140.457 150.743C135.015 153.918 127.587 155.511 118.191 155.511V155.501ZM111.886 79.9904H125.984V63.2518C125.984 58.7722 125.427 55.5588 124.324 53.5923C123.22 51.6259 121.56 50.6475 119.352 50.6475C116.972 50.6475 115.139 51.5875 113.834 53.4676C112.538 55.3477 111.886 58.6091 111.886 63.2518V79.9904Z" fill="white"/>
<path d="M250.048 99.3957V80.1631H292.843V99.3957H250.048Z" fill="white"/>
<path d="M326.51 155.52C319.6 155.52 314.331 153.918 310.713 150.715C307.095 147.511 304.619 143.118 303.294 137.535C301.97 131.952 301.308 125.631 301.308 118.552C301.308 110.983 302.056 104.777 303.544 99.9424C305.041 95.1079 307.594 91.1463 311.212 88.048C314.83 84.9496 319.821 82.3309 326.184 80.1727L344.592 73.8705V61.1031C344.592 54.4173 342.403 51.0695 338.037 51.0695C334.054 51.0695 332.067 53.7746 332.067 59.1942V66.6571H303.208C303.15 66.2158 303.122 65.6499 303.122 64.9592V62.5995C303.122 50.2254 306.039 41.4484 311.874 36.2782C317.71 31.1079 326.952 28.5276 339.611 28.5276C346.242 28.5276 352.183 29.6978 357.442 32.048C362.692 34.3981 366.857 37.8609 369.919 42.446C372.99 47.0312 374.526 52.7002 374.526 59.434V154.177H345.004V139.424C343.565 144.623 341.194 148.595 337.873 151.357C334.553 154.12 330.771 155.501 326.51 155.501V155.52ZM338.2 132.47C340.628 132.47 342.288 131.444 343.171 129.4C344.054 127.357 344.496 125.141 344.496 122.772V88.1247C340.407 89.7842 337.221 91.8657 334.956 94.3789C332.691 96.8921 331.558 100.585 331.558 105.448V121.448C331.558 128.796 333.766 132.47 338.19 132.47H338.2Z" fill="white"/>
<path d="M591.473 155.501C566.702 155.501 554.322 142.657 554.322 116.959V67.06C554.322 55.3477 557.614 45.9952 564.188 39.0024C570.772 32.0096 579.86 28.518 591.473 28.518C603.086 28.518 612.261 32.0096 618.844 39.0024C625.428 45.9952 628.711 55.3477 628.711 67.06V116.959C628.711 142.657 616.301 155.501 591.473 155.501ZM591.473 132.623C593.959 132.623 595.744 131.722 596.819 129.928C597.894 128.134 598.441 125.851 598.441 123.089V62.3309C598.441 55.0887 596.118 51.4724 591.473 51.4724C586.828 51.4724 584.505 55.0887 584.505 62.3309V123.089C584.505 125.851 585.043 128.134 586.127 129.928C587.202 131.722 588.987 132.623 591.473 132.623Z" fill="white"/>
<path d="M715 29.8609V154.177H684.807V140.93C684.788 114.734 684.759 88.5468 684.74 62.3501C684.74 55.1079 682.427 51.482 677.782 51.482C673.137 51.482 670.795 55.1079 670.795 62.3501V137.353C670.488 143.079 669.029 147.444 666.457 150.417C665.017 152.096 662.915 153.343 660.132 154.187C659.806 154.283 659.451 154.379 659.096 154.475C656.408 155.156 653.174 155.511 649.374 155.511C645.573 155.511 641.849 155.204 638.193 154.571C634.517 153.938 632.338 153.506 631.638 153.295V133.065C632.751 133.276 633.999 133.391 635.39 133.391C637.367 133.391 638.721 132.969 639.421 132.144C640.103 131.319 640.458 129.88 640.458 127.827C640.515 107.578 640.563 87.3189 640.621 67.0695C640.554 63.3477 640.419 46.9928 646.12 37.4101C647.896 34.4173 649.777 32.8825 650.199 32.5372C653.5 29.8705 657.877 28.5468 663.338 28.5468C665.718 28.5468 667.887 28.7386 669.825 29.1607C672.801 29.7458 675.248 30.8393 677.206 32.3933C680.44 34.964 682.983 38.542 684.797 43.1463V29.8705H714.99L715 29.8609Z" fill="white"/>
<path d="M190.507 155.52C183.875 155.52 178.798 154.139 175.285 151.376C171.773 148.614 169.383 144.758 168.116 139.818C166.84 134.878 166.206 129.084 166.206 122.456V29.8609H196.064V118.964C196.064 123.933 196.447 127.405 197.225 129.362C198.002 131.329 199.826 132.307 202.695 132.307C205.795 132.307 207.743 130.926 208.54 128.163C209.337 125.4 209.74 121.832 209.74 117.468V29.8609H239.347V154.197H209.663V140.93C207.782 145.688 205.527 149.305 202.906 151.789C200.277 154.273 196.15 155.52 190.507 155.52Z" fill="white"/>
<path d="M202.782 21.2182C197.234 21.2182 192.532 20.0576 188.683 17.7362C184.835 15.4149 181.61 12.3357 179 8.48921L187.493 0C189.192 1.69784 191.313 3.2518 193.866 4.67146C196.409 6.09113 199.384 6.79137 202.782 6.79137C206.179 6.79137 209.154 6.09113 211.698 4.67146C214.241 3.26139 216.371 1.69784 218.07 0L226.564 8.48921C224.069 12.3357 220.873 15.4245 216.967 17.7362C213.06 20.0576 208.329 21.2182 202.782 21.2182Z" fill="white"/>
<path d="M409.94 155.52C403.308 155.52 398.231 154.139 394.718 151.376C391.206 148.614 388.816 144.758 387.549 139.818C386.273 134.878 385.639 129.084 385.639 122.456V29.8609H415.497V118.964C415.497 123.933 415.88 127.405 416.658 129.362C417.435 131.329 419.259 132.307 422.128 132.307C425.228 132.307 427.177 130.926 427.973 128.163C428.77 125.4 429.173 121.832 429.173 117.468V29.8609H458.78V154.197H429.096V140.93C427.215 145.688 424.96 149.305 422.339 151.789C419.71 154.273 415.583 155.52 409.94 155.52Z" fill="white"/>
<path d="M422.215 21.2182C416.667 21.2182 411.965 20.0576 408.116 17.7362C404.268 15.4149 401.043 12.3357 398.433 8.48921L406.926 0C408.625 1.69784 410.746 3.2518 413.299 4.67146C415.842 6.09113 418.817 6.79137 422.215 6.79137C425.612 6.79137 428.587 6.09113 431.131 4.67146C433.674 3.26139 435.805 1.69784 437.503 0L445.997 8.48921C443.502 12.3357 440.306 15.4245 436.4 17.7362C432.493 20.0576 427.762 21.2182 422.215 21.2182Z" fill="white"/>
<path d="M514.339 29.8705V43.8849C513.303 39.1846 511.239 35.4532 508.168 32.6906C506.162 30.8873 503.648 29.6691 500.577 29.0647C498.974 28.7194 497.227 28.5564 495.346 28.5564C488.878 28.5564 483.839 29.9952 480.25 32.8537C476.66 35.7314 474.146 39.7314 472.706 44.8345C471.286 49.9472 470.556 55.8465 470.556 62.542V123.444C470.556 129.343 471.391 134.715 473.052 139.52C474.712 144.326 477.351 148.134 481.008 150.954C484.664 153.775 489.444 155.175 495.356 155.175C497.247 155.175 498.984 155.031 500.586 154.753C507.813 153.477 512.391 149.381 514.339 142.427V154.619C514.339 159.463 513.178 163.424 510.865 166.465C508.591 169.429 505.164 170.945 500.577 171.012C500.452 171.031 500.356 171.031 500.231 171.031C492.985 171.031 485.749 168.882 478.522 164.566L470.547 178.197L468.474 181.727C469.165 182.293 469.856 182.839 470.547 183.367C473.119 185.295 475.681 186.858 478.253 188.029C481.517 189.506 485.211 190.542 489.329 191.127C492.573 191.597 496.306 191.856 500.567 191.962C501.729 191.981 502.899 192 504.137 192C507.794 192 511.182 191.799 514.32 191.367C523.207 190.206 530.069 187.396 534.849 182.906C541.346 176.863 544.59 166.782 544.59 152.691V29.8705H514.32H514.339ZM514.339 120.192C514.339 128.585 512.026 132.806 507.381 132.806C504.339 132.806 502.448 131.444 501.7 128.729C500.951 126.034 500.586 123.175 500.586 120.192V61.7074C500.586 58.9257 500.932 56.4988 501.661 54.3693C502.372 52.2398 504.176 51.1847 507.055 51.1847C509.31 51.1847 511.095 52.3645 512.391 54.7338C513.687 57.1223 514.339 59.434 514.339 61.7074V120.192Z" fill="white"/>
</svg>
