<svg width="19" height="158" viewBox="0 0 19 158" fill="none" xmlns="http://www.w3.org/2000/svg">
<rect width="18.6162" height="157.337" fill="black"/>
<path d="M13.358 4.80371H9.86488C9.22394 6.72291 8.58299 8.64211 7.94204 10.5613V4.80371H4.63937V18.905H7.94313V13.2138L9.73974 18.9061H13.2992L10.9237 11.8625C11.7355 9.51032 12.5462 7.1581 13.358 4.80589V4.80371Z" fill="#EEDBDB"/>
<path d="M8.70051 35.3217C7.6972 35.3217 6.89846 35.1335 6.30322 34.7581C5.70798 34.3817 5.2814 33.8399 5.02459 33.1316C4.76778 32.4233 4.63937 31.5714 4.63937 30.5749V24.9054C4.63937 23.5955 5.01588 22.6032 5.76783 21.9298C6.51977 21.2563 7.55464 20.919 8.87136 20.919C11.5799 20.919 12.9336 22.2474 12.9336 24.9054V25.9303C12.9336 27.1716 12.9205 28.005 12.8955 28.4315H8.00624V31.158C8.00624 31.4082 8.02148 31.6552 8.05304 31.8957C8.08459 32.1372 8.15533 32.3363 8.26415 32.493C8.37405 32.6496 8.55143 32.728 8.79519 32.728C9.14667 32.728 9.3654 32.5756 9.45354 32.2721C9.54169 31.9686 9.58522 31.5714 9.58522 31.0829V29.7295H12.9325V30.5281C12.9325 31.5812 12.8019 32.4636 12.5418 33.174C12.2818 33.8856 11.8432 34.4209 11.2251 34.7821C10.6081 35.1422 9.76586 35.3228 8.70051 35.3228V35.3217ZM7.98557 26.7571H9.58413V24.8586C9.58413 24.3505 9.52101 23.986 9.39587 23.763C9.27073 23.54 9.08247 23.429 8.83218 23.429C8.56231 23.429 8.35447 23.5356 8.20647 23.7489C8.05957 23.9621 7.98557 24.332 7.98557 24.8586V26.7571Z" fill="#EEDBDB"/>
<path d="M6.63077 60.3216V58.1402H11.483V60.3216H6.63077Z" fill="#EEDBDB"/>
<path d="M7.49697 78.5615C6.71347 78.5615 6.11605 78.3798 5.7058 78.0164C5.29555 77.6531 5.01479 77.1548 4.86462 76.5216C4.71445 75.8883 4.63937 75.1714 4.63937 74.3684C4.63937 73.51 4.72425 72.8061 4.89292 72.2578C5.06267 71.7094 5.35213 71.2601 5.76238 70.9087C6.17263 70.5572 6.73849 70.2602 7.45997 70.0154L9.54713 69.3006V67.8525C9.54713 67.0942 9.29902 66.7145 8.80389 66.7145C8.35229 66.7145 8.12703 67.0213 8.12703 67.636V68.4825H4.85483C4.8483 68.4324 4.84504 68.3682 4.84504 68.2899V68.0222C4.84504 66.6187 5.17584 65.6232 5.83747 65.0368C6.49909 64.4504 7.54702 64.1577 8.98235 64.1577C9.7343 64.1577 10.4079 64.2905 11.0042 64.557C11.5995 64.8236 12.0717 65.2163 12.4189 65.7364C12.7671 66.2564 12.9412 66.8994 12.9412 67.6632V78.4092H9.59392V76.7359C9.43069 77.3256 9.16191 77.776 8.78539 78.0893C8.40887 78.4027 7.98012 78.5593 7.49697 78.5593V78.5615ZM8.82239 75.9471C9.0977 75.9471 9.28596 75.8307 9.38607 75.5989C9.48619 75.3672 9.53624 75.1159 9.53624 74.8471V70.9174C9.07267 71.1056 8.71139 71.3417 8.45458 71.6267C8.19777 71.9118 8.06936 72.3307 8.06936 72.8823V74.697C8.06936 75.5304 8.31964 75.9471 8.8213 75.9471H8.82239Z" fill="#EEDBDB"/>
<path d="M9.47312 135.677C6.66449 135.677 5.26072 134.22 5.26072 131.306V125.646C5.26072 124.318 5.63397 123.257 6.37938 122.464C7.12588 121.671 8.15641 121.275 9.47312 121.275C10.7898 121.275 11.8302 121.671 12.5767 122.464C13.3232 123.257 13.6953 124.318 13.6953 125.646V131.306C13.6953 134.22 12.2883 135.677 9.47312 135.677ZM9.47312 133.082C9.75496 133.082 9.95737 132.98 10.0793 132.777C10.2011 132.573 10.2632 132.314 10.2632 132.001V125.11C10.2632 124.288 9.99981 123.878 9.47312 123.878C8.94643 123.878 8.6831 124.288 8.6831 125.11V132.001C8.6831 132.314 8.74403 132.573 8.867 132.777C8.98888 132.98 9.19128 133.082 9.47312 133.082Z" fill="#EEDBDB"/>
<path d="M13.6552 137.95V152.05H10.2317V150.548C10.2295 147.576 10.2263 144.606 10.2241 141.635C10.2241 140.814 9.96184 140.402 9.43516 140.402C8.90847 140.402 8.64296 140.814 8.64296 141.635V150.142C8.60813 150.791 8.44273 151.287 8.15109 151.624C7.98786 151.814 7.74955 151.956 7.43398 152.051C7.39698 152.062 7.35671 152.073 7.31645 152.084C7.01175 152.161 6.64503 152.202 6.2141 152.202C5.78317 152.202 5.36096 152.167 4.94636 152.095C4.52958 152.023 4.28256 151.974 4.20312 151.95V149.656C4.32936 149.68 4.47081 149.693 4.6286 149.693C4.85277 149.693 5.00621 149.645 5.08565 149.551C5.16291 149.458 5.20317 149.294 5.20317 149.062C5.2097 146.765 5.21515 144.467 5.22167 142.17C5.21406 141.748 5.19882 139.893 5.84521 138.806C6.04652 138.467 6.2598 138.293 6.30768 138.254C6.68202 137.951 7.17824 137.801 7.79743 137.801C8.0673 137.801 8.31324 137.823 8.53305 137.871C8.87039 137.937 9.14788 138.061 9.36987 138.237C9.73659 138.529 10.025 138.935 10.2306 139.457V137.951H13.6541L13.6552 137.95Z" fill="#EEDBDB"/>
<path d="M7.39468 54.2404C6.64274 54.2404 6.06708 54.0837 5.6688 53.7703C5.27052 53.457 4.99956 53.0196 4.85592 52.4593C4.71119 51.899 4.63937 51.2419 4.63937 50.4901V39.9878H8.02474V50.0941C8.02474 50.6576 8.06827 51.0515 8.15641 51.2734C8.24456 51.4965 8.45132 51.6074 8.77669 51.6074C9.12817 51.6074 9.34908 51.4508 9.4394 51.1374C9.52972 50.8241 9.57542 50.4194 9.57542 49.9243V39.9878H12.9325V54.0902H9.56672V52.5855C9.35343 53.1252 9.0977 53.5353 8.80063 53.8171C8.50246 54.0989 8.03454 54.2404 7.39468 54.2404Z" fill="#EEDBDB"/>
<path d="M8.78648 39.0075C8.1575 39.0075 7.62429 38.8759 7.18792 38.6126C6.75156 38.3493 6.38592 38.0001 6.08993 37.5638L7.05299 36.6009C7.2456 36.7935 7.48609 36.9697 7.77555 37.1308C8.06392 37.2918 8.40126 37.3712 8.78648 37.3712C9.1717 37.3712 9.50904 37.2918 9.79741 37.1308C10.0858 36.9708 10.3274 36.7935 10.52 36.6009L11.483 37.5638C11.2001 38.0001 10.8377 38.3504 10.3948 38.6126C9.95194 38.8759 9.41546 39.0075 8.78648 39.0075Z" fill="#EEDBDB"/>
<path d="M7.7799 97.9203C7.02796 97.9203 6.4523 97.7636 6.05402 97.4503C5.65574 97.1369 5.38478 96.6996 5.24114 96.1393C5.09641 95.5789 5.02459 94.9218 5.02459 94.17V83.6677H8.40996V93.774C8.40996 94.3376 8.45349 94.7314 8.54164 94.9534C8.62978 95.1764 8.83654 95.2874 9.16191 95.2874C9.51339 95.2874 9.7343 95.1307 9.82462 94.8174C9.91494 94.504 9.96064 94.0993 9.96064 93.6043V83.6677H13.3177V97.7701H9.95194V96.2655C9.73865 96.8051 9.48292 97.2153 9.18585 97.4971C8.88768 97.7788 8.41976 97.9203 7.7799 97.9203Z" fill="#EEDBDB"/>
<path d="M9.1717 82.6875C8.54272 82.6875 8.00951 82.5558 7.57314 82.2925C7.13677 82.0292 6.77114 81.68 6.47515 81.2437L7.4382 80.2808C7.63081 80.4734 7.87131 80.6497 8.16077 80.8107C8.44914 80.9717 8.78648 81.0511 9.1717 81.0511C9.55692 81.0511 9.89426 80.9717 10.1826 80.8107C10.471 80.6508 10.7126 80.4734 10.9052 80.2808L11.8682 81.2437C11.5853 81.68 11.223 82.0303 10.7801 82.2925C10.3372 82.5558 9.80068 82.6875 9.1717 82.6875Z" fill="#EEDBDB"/>
<path d="M10.2251 100.71V102.3C10.1075 101.766 9.87358 101.343 9.52536 101.03C9.29793 100.825 9.01283 100.687 8.6646 100.619C8.48287 100.579 8.28482 100.561 8.07153 100.561C7.33809 100.561 6.76679 100.724 6.3598 101.048C5.95282 101.375 5.66771 101.828 5.50448 102.407C5.34343 102.987 5.26072 103.656 5.26072 104.416V111.323C5.26072 111.992 5.3554 112.602 5.54366 113.147C5.73191 113.692 6.03117 114.124 6.44577 114.444C6.86037 114.763 7.4023 114.922 8.07262 114.922C8.287 114.922 8.48396 114.906 8.66569 114.874C9.4851 114.73 10.0042 114.265 10.2251 113.476V114.859C10.2251 115.409 10.0934 115.858 9.83114 116.203C9.57324 116.539 9.18476 116.711 8.6646 116.719C8.65046 116.721 8.63957 116.721 8.62542 116.721C7.80383 116.721 6.98334 116.477 6.16393 115.987L5.25964 117.533L5.02459 117.934C5.10294 117.998 5.18129 118.06 5.25964 118.12C5.55127 118.339 5.84182 118.516 6.13346 118.649C6.50344 118.816 6.9224 118.934 7.38923 119C7.75704 119.053 8.18035 119.083 8.66351 119.095C8.79518 119.097 8.92794 119.099 9.06832 119.099C9.48292 119.099 9.86706 119.076 10.2229 119.027C11.2306 118.896 12.0086 118.577 12.5505 118.068C13.2873 117.382 13.6551 116.239 13.6551 114.64V100.71H10.2229H10.2251ZM10.2251 110.954C10.2251 111.906 9.96282 112.385 9.43613 112.385C9.09117 112.385 8.8768 112.231 8.79192 111.923C8.70704 111.617 8.66569 111.293 8.66569 110.954V104.321C8.66569 104.005 8.70487 103.73 8.78757 103.489C8.86809 103.247 9.07267 103.127 9.39913 103.127C9.65486 103.127 9.85726 103.261 10.0042 103.53C10.1511 103.801 10.2251 104.063 10.2251 104.321V110.954Z" fill="#EEDBDB"/>
</svg>
