<svg width="19" height="19" viewBox="0 0 19 19" fill="none" xmlns="http://www.w3.org/2000/svg">
<path d="M9.5 5H5.45C4.85326 5 4.28097 4.76295 3.85901 4.34099C3.43705 3.91903 3.2 3.34674 3.2 2.75C3.2 2.15326 3.43705 1.58097 3.85901 1.15901C4.28097 0.737053 4.85326 0.5 5.45 0.5C8.6 0.5 9.5 5 9.5 5ZM9.5 5H13.55C14.1467 5 14.719 4.76295 15.141 4.34099C15.5629 3.91903 15.8 3.34674 15.8 2.75C15.8 2.15326 15.5629 1.58097 15.141 1.15901C14.719 0.737053 14.1467 0.5 13.55 0.5C10.4 0.5 9.5 5 9.5 5ZM9.5 5L9.5 18.5M0.5 11.3H18.5M0.5 7.88L0.5 15.62C0.5 16.6281 0.5 17.1321 0.696188 17.5172C0.86876 17.8559 1.14413 18.1312 1.48282 18.3038C1.86786 18.5 2.37191 18.5 3.38 18.5L15.62 18.5C16.6281 18.5 17.1321 18.5 17.5172 18.3038C17.8559 18.1312 18.1312 17.8559 18.3038 17.5172C18.5 17.1321 18.5 16.6281 18.5 15.62V7.88C18.5 6.87191 18.5 6.36786 18.3038 5.98282C18.1312 5.64413 17.8559 5.36876 17.5172 5.19619C17.1321 5 16.6281 5 15.62 5L3.38 5C2.37191 5 1.86786 5 1.48282 5.19619C1.14413 5.36876 0.868761 5.64413 0.696189 5.98282C0.5 6.36786 0.5 6.87191 0.5 7.88Z" stroke="white" stroke-linecap="round" stroke-linejoin="round"/>
</svg>
