<svg xmlns="http://www.w3.org/2000/svg" width="56" height="60" fill="currentColor" viewBox="0 0 56 60">
  <path d="M35.327 32.57a.272.272 0 0 1 .058-.088c.015-.007.023-.028.042-.045.019.142.13.296.234.409.074-.192.138-.388.208-.569.007.015.028.023.024.034.084.13.06.317-.004.452-.078.202-.348.392-.51.243-.101-.088-.094-.232-.077-.373.008-.02.006-.046.025-.064Z"/>
  <path d="M48.373 32.381c1.162-5.308-.987-9.817-6.031-12.861 1.048-.587 1.745-1.407 1.976-2.383.285-1.177-.151-2.424-1.175-3.323-1.277-1.132-3.15-1.514-5.223-1.129.566-1.619.484-3.084-.253-4.154-.697-1.017-1.87-1.496-3.157-1.308-1.533.226-2.864 1.353-3.717 3.08-2.114-2.007-4.847-2.037-6.583-.908-1.228.798-1.78 2.066-1.555 3.38-6.126-.696-9.646 1.971-11.544 4.434-4.419 5.713-4.742 16.161-.768 24.845 2.256 4.93 5.578 8.372 9.445 9.87 1.225.476 2.514.754 3.834.825 9.948-.312 22.668-10.785 24.751-20.368ZM25.067 10.694c1.392-.906 3.754-.677 5.377 1.52a.75.75 0 0 0 .742.3.78.78 0 0 0 .608-.524c.576-1.835 1.683-3.048 2.958-3.24.688-.101 1.296.134 1.658.654.612.887.412 2.415-.529 4.084a.777.777 0 0 0 .088.88.76.76 0 0 0 .847.217c2.162-.804 4.151-.658 5.317.382.583.52.847 1.198.69 1.823-.19.808-1.021 1.467-2.29 1.833a.644.644 0 0 0-.396.104c-.758.184-1.648.268-2.645.25a.747.747 0 0 0-.677.386.761.761 0 0 0 .006.775c1.133 1.884 1.42 3.576.775 4.514-.338.494-.934.704-1.634.58-1.341-.237-3.24-1.819-4.169-5.462a.764.764 0 0 0-.47-.525c-.021-.009-.053-.02-.075-.03a.787.787 0 0 0-.755.21c-1.834 1.888-4.587 1.911-6.361 1.114-1.007-.44-1.618-1.105-1.587-1.693.022-.31.333-1.427 3.518-2.374a.76.76 0 0 0 .532-.615.78.78 0 0 0-.322-.75c-.844-.572-1.451-1.187-1.806-1.79-.576-1.044-.349-2.01.6-2.623Zm-1.415 40.523c-4.833-.268-9.162-3.832-11.886-9.8-3.69-8.059-3.438-18.07.584-23.263 2.487-3.226 6.314-4.5 11.058-3.716a6.5 6.5 0 0 0 .877 1.026c-2.56 1.042-3.204 2.324-3.268 3.28-.076 1.27.858 2.464 2.498 3.197 1.944.864 4.873.957 7.13-.63 1.024 3.018 2.73 4.622 4.275 5.22.266.104.52.178.77.226 1.295.232 2.485-.214 3.165-1.212.859-1.236.797-3.037-.116-5.044a10.431 10.431 0 0 0 1.716-.254c5.295 2.713 7.523 6.798 6.428 11.839-1.972 8.977-13.939 18.834-23.23 19.13Z"/>
  <path d="M18.263 26.106c-.003-.025.006-.047.003-.072.005-.01.005-.01-.002-.025-.002-.026-.009-.04-.015-.055a.41.41 0 0 0-.034-.136.888.888 0 0 0-.487-.544l-.032-.012c-.032-.013-.068-.015-.111-.031a.315.315 0 0 0-.1-.027c-.01-.004-.025.003-.036-.001-.036-.002-.083-.008-.123.001a.943.943 0 0 0-.303.054 1.53 1.53 0 0 0-.348.172c-.283.16-.515.413-.612.694-.06.123-.09.234-.12.309a.775.775 0 0 0 .171.728c.035.037.084.069.129.11a.756.756 0 0 0 .402.512l.054.02c.33.128.704.016.907-.285.112-.165.269-.41.395-.704.04-.071.09-.137.125-.197a.816.816 0 0 0 .137-.51Zm8.752 5.78a.78.78 0 0 0-.31-.622.787.787 0 0 0-.377-.134c-.01-.004-.017-.02-.028-.023a.778.778 0 0 0-1.042.319c-.044.08-.081.177-.125.258-.189.172-.35.366-.458.582a.758.758 0 0 0 .083.828.862.862 0 0 0 .142.141.68.68 0 0 0 .2.274.753.753 0 0 0 .698.16 1.727 1.727 0 0 0 1.18-1.087.974.974 0 0 0 .036-.598.183.183 0 0 1 .001-.098Zm9.466-.375a1.371 1.371 0 0 0-.17-.127.839.839 0 0 0-.361-.397.746.746 0 0 0-1.026.338 3.72 3.72 0 0 0-.35 1.126c-.009.021-.01.057-.014.068-.081.557.139.875.33 1.047a.93.93 0 0 0 .298.177.97.97 0 0 0 .599.035c.366-.09.702-.389.83-.72.118-.272.153-.553.093-.809a.807.807 0 0 0-.229-.738Zm-17.726 6.573a.755.755 0 0 0-.484-.396.336.336 0 0 0-.104-.016c-.043-.016-.075-.029-.122-.035-.006-.014-.027-.023-.034-.037a.768.768 0 0 0-1.085.081c-.195.219-.514.598-.523 1.097-.023.407.185.819.535 1.053.067.05.141.079.216.107a.98.98 0 0 0 .793-.023 1.16 1.16 0 0 0 .314-.21.772.772 0 0 0 .3-.361l.232-.633a.732.732 0 0 0-.038-.627ZM29.21 42a.856.856 0 0 0-.307-.316c-.219-.194-.54-.22-.805-.103a1.313 1.313 0 0 0-.174.067 1.93 1.93 0 0 0-1.1 1.449.771.771 0 0 0 .48.847l.032.013a1.424 1.424 0 0 0 1.604-.567c.114-.103.277-.273.355-.537a1.07 1.07 0 0 0-.085-.854Z"/>
</svg>
