<svg xmlns="http://www.w3.org/2000/svg" width="22" height="18" fill="currentColor" viewBox="0 0 22 18">
  <path d="M1.487 7.835C7.304 5.27 11.183 3.577 13.123 2.76 18.666.424 19.817.018 20.57.001c.165-.004.535.035.776.229.203.163.26.384.287.54.027.155.062.51.037.787-.287 3.162-1.553 10.84-2.199 14.384-.273 1.5-.823 2.004-1.357 2.056-1.16.112-2.046-.758-3.174-1.49-1.765-1.145-2.762-1.859-4.476-2.976-1.98-1.292-.703-2.013.416-3.186.293-.308 5.387-4.984 5.484-5.407.013-.052.023-.25-.094-.353-.118-.103-.29-.067-.414-.038-.177.041-2.98 1.912-8.408 5.613-.795.552-1.517.822-2.164.811-.714-.012-2.089-.394-3.111-.721C.918 9.849-.078 9.638.005 8.946c.044-.36.538-.73 1.482-1.11Z"/>
</svg>
