<svg xmlns="http://www.w3.org/2000/svg" width="26" height="27" fill="currentColor" viewBox="0 0 26 27">
  <path d="M13.055 0a12.862 12.862 0 0 1 9.157 3.797A12.867 12.867 0 0 1 26 12.955c-.003 7.136-5.808 12.943-12.945 12.946h-.006a12.92 12.92 0 0 1-6.187-1.576L0 26.125l1.837-6.708a12.923 12.923 0 0 1-1.729-6.472C.111 5.807 5.92 0 13.055 0Zm.007 2.186c-5.936 0-10.763 4.826-10.765 10.758a10.736 10.736 0 0 0 1.645 5.727l.256.407-1.087 3.97 4.073-1.067.392.233a10.74 10.74 0 0 0 5.477 1.5h.005c5.93 0 10.757-4.828 10.76-10.76a10.696 10.696 0 0 0-3.15-7.613 10.687 10.687 0 0 0-7.606-3.155ZM9.09 6.979c.198.01.466-.076.728.554.27.648.916 2.24.997 2.403.081.161.135.35.028.566-.108.216-.163.351-.324.54-.162.189-.34.421-.486.566-.162.162-.33.337-.141.66.188.324.838 1.384 1.8 2.242 1.235 1.102 2.277 1.443 2.6 1.605.324.162.513.135.701-.08.189-.217.809-.946 1.025-1.27.215-.323.43-.27.727-.162.297.109 1.888.891 2.211 1.053.323.162.54.243.62.378.08.136.08.783-.19 1.538-.27.756-1.56 1.445-2.182 1.538-.557.084-1.263.119-2.038-.128a18.598 18.598 0 0 1-1.844-.681c-3.245-1.401-5.363-4.669-5.525-4.885-.162-.216-1.321-1.754-1.321-3.346 0-1.591.835-2.374 1.131-2.698a1.19 1.19 0 0 1 .864-.405c.215 0 .43.002.619.012Z"/>
</svg>
